<svg style="position: absolute; width: 0; height: 0; overflow: hidden;" version="1.1" xmlns="http://www.w3.org/2000/svg" xmlns:xlink="http://www.w3.org/1999/xlink">
	<defs>
		<symbol id="icon-document" viewBox="0 0 27 28">
			<title>document</title>
			<path d="M19.8225 9.55663L16.3784 6.11248C16.3063 6.04045 16.2086 6 16.1067 6H9.18962C8.53361 6 8 6.53364 8 7.18962V20.0768C8 20.7328 8.53364 21.2664 9.18962 21.2664H18.7457C19.4017 21.2664 19.9353 20.7327 19.9353 20.0768V9.82831C19.9353 9.72651 19.8948 9.62875 19.8228 9.55661L19.8225 9.55663ZM16.4909 7.31176L18.6234 9.44427L16.9121 9.44415C16.6799 9.44415 16.4909 9.25515 16.4909 9.02288V7.31176ZM19.1667 20.0769C19.1667 20.3092 18.9777 20.4982 18.7454 20.4982H9.18934C8.95707 20.4982 8.76806 20.3092 8.76806 20.0769V7.18979C8.76806 6.95753 8.95706 6.76852 9.18934 6.76852H15.7224V9.02293C15.7224 9.67894 16.256 10.2125 16.912 10.2125H19.1665L19.1667 20.0769Z" stroke-width="0.3"/>
			<path d="M10.4779 10.0711H14.2831C14.4953 10.0711 14.6672 9.89915 14.6672 9.6869C14.6672 9.47464 14.4953 9.30273 14.2831 9.30273H10.4779C10.2657 9.30273 10.0938 9.47466 10.0938 9.6869C10.0938 9.89905 10.2657 10.0711 10.4779 10.0711Z" stroke-width="0.3"/>
			<path d="M17.4583 14H10.4779C10.2657 14 10.0938 14.1719 10.0938 14.3842C10.0938 14.5964 10.2657 14.7683 10.4779 14.7683H17.4583C17.6705 14.7683 17.8424 14.5964 17.8424 14.3842C17.8424 14.1719 17.6705 14 17.4583 14Z" stroke-width="0.3"/>
			<path d="M17.4583 17.1953H10.4779C10.2657 17.1953 10.0938 17.3672 10.0938 17.5795C10.0938 17.7917 10.2657 17.9637 10.4779 17.9637H17.4583C17.6705 17.9637 17.8424 17.7917 17.8424 17.5795C17.8424 17.3673 17.6705 17.1953 17.4583 17.1953Z" stroke-width="0.3"/>
		</symbol>
		<symbol id="icon-label" viewBox="0 0 27 28">
			<title>label</title>
			<path d="M20.3921 14.1479L14.1856 7.94142C13.7563 7.51213 13.1483 7.29753 12.558 7.36901L9.49941 7.65521C8.53363 7.76251 7.76447 8.51371 7.67501 9.47962L7.37096 12.5202C7.29947 13.1283 7.51407 13.7186 7.94338 14.1479L14.1856 20.3543C14.5613 20.73 15.0799 20.9445 15.6343 20.9445C16.1888 20.9445 16.6896 20.7299 17.0831 20.3543L20.4099 17.0096C20.7855 16.634 21.0001 16.1153 21.0001 15.5609C20.9823 15.0421 20.7675 14.5235 20.392 14.1478L20.3921 14.1479ZM19.9449 15.5966C19.9449 15.8648 19.8376 16.1152 19.6587 16.2942L16.3319 19.621C16.153 19.7999 15.9026 19.925 15.6344 19.925C15.3661 19.925 15.1157 19.8177 14.9368 19.621L8.7125 13.4145C8.53358 13.2356 8.42629 12.9852 8.40845 12.717V12.6097L8.7125 9.56907C8.76614 9.10406 9.12384 8.72843 9.6068 8.67477L12.6474 8.37072H12.7547C13.0229 8.37072 13.2733 8.47802 13.4522 8.65693L19.6766 14.8634C19.8376 15.078 19.9449 15.3284 19.9449 15.5966H19.9449Z" stroke="none"/>
			<path d="M11.8775 10.0879C10.9117 10.0879 10.1426 10.8749 10.1426 11.805C10.1426 12.27 10.3215 12.6993 10.6434 13.0392C10.9833 13.3791 11.4124 13.5578 11.8776 13.5578C12.3426 13.5578 12.7719 13.3789 13.1117 13.057C13.4516 12.7172 13.6303 12.288 13.6303 11.8229C13.6303 11.3579 13.4514 10.9107 13.1117 10.5887C12.7719 10.2668 12.3426 10.1059 11.8776 10.0879L11.8775 10.0879ZM12.5571 11.8229C12.5571 12.0018 12.4856 12.1806 12.3603 12.3237C12.2351 12.4489 12.0563 12.5204 11.8595 12.5204C11.4839 12.5204 11.162 12.1985 11.162 11.8229C11.162 11.644 11.2335 11.4652 11.3587 11.3221C11.484 11.1968 11.6806 11.1253 11.8417 11.1253C12.0206 11.1253 12.1816 11.1968 12.3425 11.3221C12.4856 11.483 12.5571 11.6441 12.5571 11.8229L12.5571 11.8229Z" stroke="none"/>
		</symbol>
		<symbol id="icon-catalog" viewBox="0 0 27 28">
			<title>catalog</title>
			<path d="M18.5199 6.59766H8.92534C8.18674 6.59766 7.58594 7.19849 7.58594 7.93706V20.5619C7.58594 20.9201 7.72482 21.2562 7.9771 21.5084C8.23026 21.7617 8.56703 21.9011 8.92537 21.9011H17.7815C18.2107 21.9011 18.6059 21.6676 18.8129 21.2916L19.5517 19.9505C19.6474 19.7768 19.698 19.5804 19.698 19.3825L19.6979 7.77519C19.6979 7.12594 19.1696 6.59769 18.5202 6.59769L18.5199 6.59766ZM18.1675 20.9363C18.09 21.077 17.942 21.1645 17.7813 21.1645L8.92516 21.1644C8.76358 21.1644 8.61187 21.1016 8.49773 20.9875C8.38458 20.8742 8.32221 20.7231 8.32221 20.5616C8.32221 20.2291 8.59268 19.9586 8.92518 19.9586H18.7059L18.1675 20.9363ZM18.9611 19.2222H8.92522C8.70846 19.2222 8.50363 19.274 8.32226 19.3658L8.32237 7.93706C8.32237 7.60467 8.59284 7.33421 8.92533 7.33421H18.5199C18.7632 7.33421 18.9611 7.53198 18.9611 7.77525L18.9611 19.2222Z" stroke-width="0.3"/>
			<path d="M16.5116 8.96191H11.3559C10.6631 8.96191 10.0996 9.52555 10.0996 10.2183V10.8889C10.0996 11.5816 10.6632 12.1453 11.3559 12.1453H16.5113C17.204 12.1453 17.7676 11.5816 17.7676 10.8889V10.2183C17.7677 9.52555 17.204 8.96191 16.5114 8.96191H16.5116ZM17.0313 10.8889C17.0313 11.1755 16.7981 11.4087 16.5115 11.4087H11.356C11.0695 11.4087 10.8362 11.1755 10.8362 10.8889V10.2183C10.8362 9.93165 11.0694 9.69838 11.356 9.69838H16.5115C16.798 9.69838 17.0313 9.93154 17.0313 10.2183V10.8889Z" stroke-width="0.3"/>
		</symbol>
		<symbol id="icon-export" viewBox="0 0 27 28">
			<title>catalog</title>
			<path d="M18.1213 20.1559H10.0668C9.56838 20.1559 9.09038 19.9579 8.73788 19.6055C8.3855 19.253 8.1875 18.775 8.1875 18.2766V10.2221C8.1875 9.72365 8.38549 9.24565 8.73788 8.89315C9.09038 8.54077 9.56838 8.34277 10.0668 8.34277H13.557C13.7489 8.34277 13.9261 8.44503 14.0221 8.61122C14.1179 8.77741 14.1179 8.98204 14.0221 9.14822C13.9261 9.3143 13.7489 9.41666 13.557 9.41666H10.0668C9.85323 9.41666 9.64838 9.5015 9.49724 9.65252C9.34622 9.80365 9.26138 10.0085 9.26138 10.2221V18.2766C9.26138 18.4902 9.34622 18.695 9.49724 18.8462C9.64838 18.9972 9.85322 19.082 10.0668 19.082H18.1213C18.3349 19.082 18.5398 18.9972 18.6909 18.8462C18.8419 18.695 18.9268 18.4902 18.9268 18.2766V14.7864C18.9268 14.5945 19.0291 14.4173 19.1952 14.3213C19.3614 14.2255 19.566 14.2255 19.7322 14.3213C19.8984 14.4173 20.0006 14.5945 20.0006 14.7864V18.2766C20.0006 18.775 19.8027 19.253 19.4503 19.6055C19.0978 19.9579 18.6198 20.1559 18.1213 20.1559L18.1213 20.1559Z" stroke="none"/>
			<path d="M13.7128 13.8682L17.3641 10.2221L16.3975 9.26094C16.323 9.18543 16.2725 9.08958 16.2525 8.98541C16.2324 8.88125 16.2437 8.77349 16.2848 8.6756C16.325 8.57762 16.3934 8.49368 16.4814 8.43435C16.5693 8.37513 16.6728 8.34322 16.7788 8.34277H19.4636C19.5338 8.34356 19.6031 8.35817 19.6677 8.3857C19.7988 8.44019 19.9031 8.54447 19.9576 8.6756C19.9851 8.74021 19.9997 8.80954 20.0005 8.87966V11.5646C20.0001 11.6705 19.9682 11.774 19.909 11.8619C19.8496 11.9499 19.7657 12.0183 19.6677 12.0585C19.5698 12.0997 19.4621 12.1109 19.3579 12.0908C19.2537 12.0708 19.1579 12.0203 19.0824 11.9458L18.1212 10.9792L14.4751 14.6305C14.3389 14.7667 14.1404 14.8198 13.9543 14.77C13.7682 14.7202 13.6229 14.5749 13.573 14.3888C13.5233 14.2027 13.5764 14.0042 13.7126 13.868L13.7128 13.8682Z" stroke="none"/>
		</symbol>
		<symbol id="icon-academy" viewBox="0 0 27 28">
			<title>academy</title>
			<path d="M12.4069 7.47878C12.8824 7.16616 13.4353 7 14.0001 7C14.5648 7 15.1178 7.16616 15.5932 7.47878L21.7373 11.5187C21.8175 11.5716 21.8836 11.6442 21.9295 11.7299C21.9754 11.8157 21.9996 11.9119 22 12.0097C22.0004 12.1075 21.9769 12.2038 21.9317 12.29C21.8864 12.3761 21.8209 12.4492 21.7411 12.5027L19.3335 14.1167V18.4599C19.3335 18.5867 19.2934 18.7101 19.2192 18.8116L19.2184 18.8124L19.2177 18.8139L19.2154 18.8171L19.2085 18.8249L19.1971 18.8405C18.8296 19.2672 18.4029 19.6362 17.9308 19.9355C17.0752 20.4763 15.7822 21 14.0001 21C12.218 21 10.925 20.4763 10.0694 19.9363C9.72697 19.7223 9.40772 19.4715 9.11698 19.1883C9.03316 19.1059 8.95283 19.0199 8.87622 18.9304C8.84337 18.8925 8.81186 18.8534 8.78174 18.8132L8.78098 18.8116C8.70679 18.7101 8.66669 18.5867 8.66669 18.4599V14.1167L7.14287 13.0952V17.2875C7.14287 17.443 7.08266 17.5921 6.9755 17.702C6.86833 17.8119 6.72299 17.8737 6.57143 17.8737C6.41988 17.8737 6.27453 17.8119 6.16737 17.702C6.0602 17.5921 6 17.443 6 17.2875V12.0119C5.99992 11.9116 6.02496 11.8129 6.07272 11.7253C6.12048 11.6377 6.18936 11.5642 6.27276 11.5117L12.4062 7.47878H12.4069ZM15.6146 16.6083C15.1345 16.93 14.5735 17.1013 14.0001 17.1013C13.4267 17.1013 12.8657 16.93 12.3856 16.6083L9.80956 14.8818V18.2403C10.0671 18.5078 10.3555 18.7421 10.6682 18.9382C11.3608 19.3743 12.4488 19.8276 14.0001 19.8276C15.5513 19.8276 16.6393 19.3743 17.3319 18.9374C17.6446 18.7416 17.933 18.5075 18.1906 18.2403V14.8818L15.6153 16.6091L15.6146 16.6083ZM14.9768 8.46513C14.3818 8.07434 13.6184 8.07434 13.0233 8.46513L7.62287 12.0166L13.0104 15.6275C13.6123 16.03 14.3887 16.03 14.9898 15.6275L20.3765 12.0166L14.9768 8.46513Z" stroke="none"/>
		</symbol>
		<symbol id="icon-case" viewBox="0 0 27 28">
			<title>case</title>
			<path d="M21.3972 7.88374H17.5239C17.236 6.24941 15.7674 5 13.9996 5C12.2322 5 10.7635 6.24934 10.4756 7.88374H6.60213C6.26942 7.88374 6 8.14474 6 8.46705V14.4423C6 14.7643 6.26942 15.0256 6.60213 15.0256H6.8539V20.4167C6.8539 20.7387 7.12332 21 7.45604 21H20.5434C20.8758 21 21.1455 20.7387 21.1455 20.4167V15.0259H21.3976C21.73 15.0259 21.9997 14.7646 21.9997 14.4426L22 8.46705C21.9994 8.14501 21.7297 7.88374 21.3973 7.88374H21.3972ZM13.9996 6.16718C15.1005 6.16718 16.0264 6.89756 16.2941 7.88402H11.7056C11.9736 6.89756 12.899 6.16718 13.9996 6.16718ZM7.20416 9.05037H20.7956V13.859H15.7281V13.3514C15.7281 13.029 15.4584 12.7681 15.126 12.7681H12.8743C12.5416 12.7681 12.2721 13.029 12.2721 13.3514V13.859H7.20439L7.20416 9.05037ZM13.4759 13.935H14.523V14.4388C14.523 14.4404 14.5227 14.4415 14.5227 14.4426C14.5227 14.4437 14.523 14.445 14.523 14.4464V14.9494H13.4759V13.935ZM19.9409 19.8334H8.05799V15.0259H12.2713V15.5327C12.2713 15.8547 12.5407 16.116 12.8734 16.116H15.1251C15.4575 16.116 15.7272 15.8547 15.7272 15.5327V15.0259H19.9402L19.9405 19.8334H19.9409Z" stroke="none"/>
		</symbol>
		<symbol id="icon-heart" viewBox="0 0 27 28">
			<title>heart</title>
			<path d="M7.88993 16.3878L13.532 21.5701C13.6537 21.682 13.7146 21.7379 13.779 21.7696C13.9183 21.8383 14.0817 21.8383 14.221 21.7696C14.2854 21.7379 14.3463 21.682 14.468 21.5701L20.1101 16.3878C21.7388 14.8918 21.9355 12.3918 20.5609 10.6595L20.3575 10.4031C18.7373 8.36133 15.5414 8.70892 14.398 11.0513C14.2362 11.3828 13.7638 11.3828 13.602 11.0513C12.4586 8.70892 9.26266 8.36133 7.64249 10.4031L7.4391 10.6595C6.06446 12.3918 6.26121 14.8918 7.88993 16.3878Z" fill="none" stroke-width="1.3"/>
		</symbol>
		<symbol id="icon-horn" viewBox="0 0 27 28">
			<title>horn</title>
			<path d="M17.7693 8.52026V18.5583C17.7693 18.9569 17.3389 19.2068 16.9927 19.0095C15.1592 17.9638 13.4032 17.1707 11.7252 16.6295L11.4733 16.5507C11.4686 16.9352 11.4797 17.3187 11.5065 17.7008C11.5285 18.0172 11.556 18.2583 11.597 18.5056C11.631 18.7109 11.6629 18.8679 11.7617 19.3302C11.9437 20.1808 11.2961 20.9686 10.3757 21.1247C10.3129 21.1353 10.2495 21.1429 10.1859 21.1473C9.26135 21.212 8.43226 20.6139 8.37244 19.7572C8.36795 19.694 8.3681 19.6305 8.37259 19.5671C8.40605 19.0958 8.41576 18.9358 8.42098 18.7277C8.42721 18.4771 8.42083 18.2345 8.39867 17.9181C8.35346 17.271 8.26321 16.6269 8.12819 15.9857C8.11457 15.9211 8.11355 15.8568 8.12355 15.7953C7.58304 15.7165 7.03526 15.6563 6.48054 15.6147C6.20948 15.5944 6 15.3687 6 15.0969V11.9816C6 11.7056 6.216 11.4777 6.4917 11.4631C8.1589 11.3743 9.9033 11.0367 11.7251 10.449C13.5515 9.85976 15.3048 9.06806 16.9852 8.07319C17.3313 7.86834 17.769 8.11781 17.769 8.52013L17.7693 8.52026ZM9.18391 15.97L9.20347 16.0668C9.31589 16.6573 9.39296 17.2504 9.43469 17.846C9.45903 18.1938 9.46612 18.4689 9.45917 18.7535C9.45352 18.9837 9.44323 19.1529 9.40846 19.6411C9.40745 19.6559 9.40731 19.6705 9.40832 19.685C9.42512 19.9236 9.72371 20.139 10.1136 20.1117C10.1433 20.1096 10.173 20.1062 10.2022 20.1011C10.5782 20.0373 10.7948 19.774 10.7464 19.5477C10.644 19.0689 10.6102 18.9027 10.5727 18.6757C10.526 18.3949 10.4949 18.1214 10.4705 17.7736C10.4353 17.2706 10.4255 16.7657 10.4408 16.2592C10.0274 16.1529 9.60868 16.0587 9.18566 15.9763L9.18391 15.97ZM20.0086 16.0855L20.0473 16.1218L21.9667 18.118C22.1655 18.3248 22.159 18.6533 21.9524 18.8521C21.7585 19.0385 21.4575 19.0445 21.2568 18.8741L21.2182 18.8378L19.2989 16.8416C19.1001 16.635 19.1065 16.3062 19.3132 16.1075C19.5071 15.9212 19.808 15.9151 20.0086 16.0855ZM16.7309 9.41419C15.2243 10.2411 13.6619 10.9158 12.0441 11.4376C10.988 11.7782 9.95418 12.0392 8.94255 12.22L8.94298 14.8755C10.0017 15.0609 11.0355 15.3162 12.0441 15.6416C13.553 16.1283 15.115 16.8069 16.7309 17.6772L16.7309 9.41419ZM7.90406 12.3783C7.61374 12.4148 7.32516 12.4446 7.03844 12.4675V14.62C7.32891 14.6474 7.61749 14.6799 7.90421 14.7171L7.90406 12.3783ZM23.4808 12.8473C23.7675 12.8473 24 13.0798 24 13.3665C24 13.6533 23.7675 13.8857 23.4808 13.8857H20.7115C20.4248 13.8857 20.1923 13.6533 20.1923 13.3665C20.1923 13.0798 20.4248 12.8473 20.7115 12.8473H23.4808ZM21.9524 8.14606C22.159 8.34482 22.1655 8.67355 21.9667 8.88028L20.0473 10.8763C19.8487 11.0831 19.5199 11.0896 19.3132 10.8908C19.1065 10.692 19.1001 10.3633 19.2989 10.1566L21.2181 8.16054C21.4169 7.95381 21.7456 7.94729 21.9524 8.14606Z" stroke="none"/>
		</symbol>
		<symbol id="icon-info" viewBox="0 0 27 28">
			<title>info</title>
			<circle cx="14" cy="14" r="7.35" fill="none" stroke-width="1.3"/>
			<path d="M14.7598 10.9646C14.7598 11.2242 14.6721 11.4484 14.4969 11.6372C14.3217 11.826 14.1109 11.9204 13.8645 11.9204C13.6235 11.9204 13.4155 11.826 13.2402 11.6372C13.065 11.4484 12.9774 11.2242 12.9774 10.9646C12.9774 10.6991 13.065 10.472 13.2402 10.2832C13.4155 10.0944 13.6235 10 13.8645 10C14.1109 10 14.3217 10.0944 14.4969 10.2832C14.6721 10.472 14.7598 10.6991 14.7598 10.9646ZM14.6776 17.5L16 17.7212V18.1195H12V17.7212L13.3142 17.5V13.3009L12.2218 13.0796V12.6814H14.6776V17.5Z" stroke="none"/>
		</symbol>
		<symbol id="icon-file" viewBox="0 0 27 28">
			<title>file</title>
			<path d="M19.8225 9.55663L16.3784 6.11248C16.3063 6.04045 16.2086 6 16.1067 6H9.18962C8.53361 6 8 6.53364 8 7.18962V20.0768C8 20.7328 8.53364 21.2664 9.18962 21.2664H18.7457C19.4017 21.2664 19.9353 20.7327 19.9353 20.0768V9.82831C19.9353 9.72651 19.8948 9.62875 19.8228 9.55661L19.8225 9.55663ZM16.4909 7.31176L18.6234 9.44427L16.9121 9.44415C16.6799 9.44415 16.4909 9.25515 16.4909 9.02288V7.31176ZM19.1667 20.0769C19.1667 20.3092 18.9777 20.4982 18.7454 20.4982H9.18934C8.95707 20.4982 8.76806 20.3092 8.76806 20.0769V7.18979C8.76806 6.95753 8.95706 6.76852 9.18934 6.76852H15.7224V9.02293C15.7224 9.67894 16.256 10.2125 16.912 10.2125H19.1665L19.1667 20.0769Z" stroke-width="0.3"/>
		</symbol>
		<symbol id="icon-phone" viewBox="0 0 27 28">
			<title>phone</title>
			<path d="M12.9879 9.96853L10.6198 7.23519C10.3468 6.92021 9.84635 6.92161 9.52925 7.23939L7.58186 9.19017C7.00226 9.77044 6.83636 10.6321 7.17166 11.3229C9.17478 15.4702 12.5197 18.8196 16.6643 20.8284C17.3545 21.1637 18.2155 20.9978 18.7951 20.4175L20.7607 18.4485C21.0792 18.13 21.0799 17.6268 20.7621 17.3538L18.0181 14.9984C17.7311 14.752 17.2852 14.7842 16.9975 15.0726L16.0427 16.0288C15.9938 16.08 15.9295 16.1138 15.8596 16.1249C15.7896 16.136 15.718 16.1239 15.6556 16.0904C14.0949 15.1917 12.8003 13.8955 11.9036 12.3337C11.8701 12.2712 11.8579 12.1995 11.869 12.1294C11.8801 12.0594 11.9139 11.9949 11.9652 11.9459L12.9172 10.9933C13.2056 10.7035 13.2371 10.2555 12.9879 9.96783V9.96853Z" fill="none" stroke-width="1.3" stroke-linecap="round" stroke-linejoin="round"/>
		</symbol>
		<symbol id="icon-search" viewBox="0 0 16 16">
			<title>search</title>
			<path d="M16 16L12.4584 12.4521M14.4211 7.71053C14.4211 9.49027 13.7141 11.1971 12.4556 12.4556C11.1971 13.7141 9.49027 14.4211 7.71053 14.4211C5.93078 14.4211 4.22394 13.7141 2.96547 12.4556C1.707 11.1971 1 9.49027 1 7.71053C1 5.93078 1.707 4.22394 2.96547 2.96547C4.22394 1.707 5.93078 1 7.71053 1C9.49027 1 11.1971 1.707 12.4556 2.96547C13.7141 4.22394 14.4211 5.93078 14.4211 7.71053V7.71053Z" fill="none" stroke-width="1.57895" stroke-linecap="round"/>
		</symbol>
		<symbol id="icon-terrace" viewBox="-10 -10 67 67">
			<title>terrace</title>
			<path d="M46.228,14.269c-0.008-0.047-0.01-0.095-0.027-0.14s-0.046-0.083-0.071-0.124c-0.024-0.041-0.045-0.083-0.079-0.119  c-0.033-0.037-0.078-0.062-0.119-0.091c-0.035-0.025-0.061-0.057-0.101-0.077L24.33,3.21c-0.014-0.007-0.03-0.005-0.044-0.012  c-0.048-0.02-0.098-0.029-0.149-0.039c-0.045-0.008-0.089-0.019-0.134-0.019c-0.047,0-0.093,0.011-0.141,0.02  c-0.049,0.009-0.097,0.018-0.143,0.037c-0.016,0.006-0.032,0.005-0.047,0.012l-21.5,10.507c-0.04,0.02-0.066,0.052-0.101,0.077  c-0.041,0.03-0.085,0.055-0.119,0.091c-0.033,0.036-0.053,0.078-0.079,0.119c-0.025,0.041-0.054,0.079-0.071,0.124  c-0.017,0.045-0.02,0.093-0.028,0.14c-0.008,0.047-0.021,0.093-0.02,0.141c0.001,0.05,0.018,0.098,0.029,0.147  c0.009,0.041,0.007,0.083,0.024,0.124l0.651,1.559l0,0c0.002,0.006,0.006,0.01,0.009,0.015c0.035,0.078,0.082,0.145,0.137,0.204  c0.017,0.019,0.037,0.033,0.056,0.05c0.048,0.042,0.1,0.078,0.157,0.106c0.024,0.012,0.047,0.024,0.072,0.034  c0.052,0.019,0.105,0.03,0.161,0.038v27.424c0,0.414,0.336,0.75,0.75,0.75h4.79c0.414,0,0.75-0.336,0.75-0.75v-26.21h29.317v26.21  c0,0.414,0.336,0.75,0.75,0.75h4.79c0.413,0,0.75-0.336,0.75-0.75V16.687c0.055-0.007,0.108-0.019,0.161-0.038  c0.025-0.01,0.048-0.021,0.072-0.034c0.057-0.028,0.108-0.063,0.157-0.106c0.019-0.017,0.039-0.031,0.056-0.05  c0.056-0.059,0.104-0.126,0.139-0.204c0.002-0.005,0.006-0.009,0.009-0.015l0,0l0.651-1.559c0.017-0.041,0.015-0.083,0.023-0.124  c0.012-0.05,0.028-0.098,0.029-0.147C46.249,14.361,46.235,14.315,46.228,14.269z M40.161,17.149c0-0.414-0.336-0.75-0.75-0.75  H8.593c-0.414,0-0.75,0.336-0.75,0.75v26.21h-3.29V15.95c0-0.414-0.336-0.75-0.75-0.75H3.652l-0.186-0.445L24.002,4.72  l20.536,10.035l-0.186,0.446h-0.151c-0.414,0-0.75,0.336-0.75,0.75v27.41h-3.29V17.149z"/><path d="M11.554,20.626H36.45c0.414,0,0.75-0.336,0.75-0.75s-0.336-0.75-0.75-0.75H11.554c-0.414,0-0.75,0.336-0.75,0.75  S11.14,20.626,11.554,20.626z"/><path d="M11.554,23.353H36.45c0.414,0,0.75-0.336,0.75-0.75s-0.336-0.75-0.75-0.75H11.554c-0.414,0-0.75,0.336-0.75,0.75  S11.14,23.353,11.554,23.353z"/><path d="M11.554,26.08H36.45c0.414,0,0.75-0.336,0.75-0.75s-0.336-0.75-0.75-0.75H11.554c-0.414,0-0.75,0.336-0.75,0.75  S11.14,26.08,11.554,26.08z"/><path d="M11.554,28.807H36.45c0.414,0,0.75-0.336,0.75-0.75s-0.336-0.75-0.75-0.75H11.554c-0.414,0-0.75,0.336-0.75,0.75  S11.14,28.807,11.554,28.807z"/>
		</symbol>
		<symbol id="icon-gates" viewBox="-15 -15 125 125">
			<title>gates</title>
			<path d="M18.718,42.861v9.381h-0.69V31.686h-2.449v-1.198c1.119-0.615,1.828-1.795,1.828-3.079c0-1.94-1.578-3.518-3.518-3.518   c-1.939,0-3.518,1.578-3.518,3.518c0,1.283,0.709,2.464,1.828,3.079v1.198H9.75v44.424h8.278V65.848h0.69v10.262h30.351V42.861   H18.718z M17.2,75.281h-6.622V32.514h2.449v-2.548l-0.243-0.11c-0.962-0.436-1.584-1.396-1.584-2.446c0-1.483,1.207-2.69,2.69-2.69   s2.69,1.207,2.69,2.69c0,1.05-0.622,2.01-1.585,2.446l-0.243,0.11v2.548H17.2V75.281z M18.028,65.021V53.07h0.69v11.951H18.028z    M48.241,75.281H19.545V43.689h28.696V75.281z"/><path d="M50.932,42.861v33.249h30.351V65.848h0.69v10.262h8.277V31.686h-2.448v-1.198c1.118-0.615,1.827-1.795,1.827-3.079   c0-1.94-1.578-3.518-3.518-3.518c-1.94,0-3.519,1.578-3.519,3.518c0,1.283,0.709,2.464,1.828,3.079v1.198h-2.448v20.557h-0.69   v-9.381H50.932z M82.8,32.514h2.449v-2.548l-0.244-0.11c-0.962-0.436-1.584-1.396-1.584-2.446c0-1.483,1.207-2.69,2.69-2.69   s2.69,1.207,2.69,2.69c0,1.05-0.623,2.01-1.586,2.446l-0.242,0.11v2.548h2.448v42.768H82.8V32.514z M81.282,65.021V53.07h0.69   v11.951H81.282z M51.759,43.689h28.695v31.592H51.759V43.689z"/>
		</symbol>
		<symbol id="icon-railing" viewBox="-50 -50 512 640">
			<title>railing</title>
			<path d="M241,228.18a4.5,4.5,0,0,0,4.5-4.5V191.15a4.5,4.5,0,0,0-4.5-4.5H184.74V159.47a4.49,4.49,0,0,0-4.5-4.5h-55V123.51a4.5,4.5,0,0,0-4.5-4.5H60a4.5,4.5,0,0,0,0,9h56.23v31.46a4.49,4.49,0,0,0,4.5,4.5h55v27.18a4.51,4.51,0,0,0,4.5,4.5h56.23v28A4.5,4.5,0,0,0,241,228.18Z"/><path d="M54.68,76.48l232.19,74.28v72.92a4.5,4.5,0,0,0,9,0V124.79a4.51,4.51,0,0,0-3.08-4.27l-231.37-77A4.5,4.5,0,1,0,58.58,52l228.29,76v13.28L57.43,67.92a4.5,4.5,0,1,0-2.75,8.56Z"/><path d="M456,313.36H444.66V204.84a4.51,4.51,0,0,0-6-4.23l-334,120.72a4.5,4.5,0,0,0-3,4.23V459.75H56.05a4.5,4.5,0,0,0,0,9H175.69a4.5,4.5,0,0,0,4.5-4.5v-46h85.07a4.49,4.49,0,0,0,4.5-4.5V368.58H368.5a4.5,4.5,0,0,0,4.5-4.49V322.35H456a4.5,4.5,0,1,0,0-9ZM435.66,211.25V237.2l-325,117.06V328.72ZM368.5,313.36a4.49,4.49,0,0,0-4.5,4.49v41.74H265.26a4.5,4.5,0,0,0-4.5,4.5v45.15H175.69a4.5,4.5,0,0,0-4.5,4.5v46H110.65V363.82l325-117.06v66.6Z"/>
		</symbol>
		<symbol id="icon-stairs" viewBox="0 -10 110 137">
			<title>stairs</title>
			<path d="M95.573,102.574H20.05a.75.75,0,0,1-.75-.75V90.512a.75.75,0,0,1,.75-.75H95.573a.75.75,0,0,1,.75.75v11.312A.75.75,0,0,1,95.573,102.574Zm-74.773-1.5H94.823V91.262H20.8Z"/><path d="M95.573,91.262h-66.1a.75.75,0,0,1-.75-.75V79.2a.75.75,0,0,1,.75-.75h66.1a.75.75,0,0,1,.75.75V90.512A.75.75,0,0,1,95.573,91.262Zm-65.346-1.5h64.6V79.949h-64.6Z"/><path d="M95.573,79.949H37.018a.75.75,0,0,1-.75-.75V67.887a.75.75,0,0,1,.75-.75H95.573a.75.75,0,0,1,.75.75V79.2A.75.75,0,0,1,95.573,79.949Zm-57.8-1.5H94.823V68.637H37.768Z"/><path d="M95.573,68.637H44.56a.75.75,0,0,1-.75-.75V56.574a.75.75,0,0,1,.75-.75H95.573a.75.75,0,0,1,.75.75V67.887A.75.75,0,0,1,95.573,68.637Zm-50.263-1.5H94.823V57.324H45.31Z"/><path d="M95.573,57.324H50.217a.75.75,0,0,1-.75-.75V45.262a.75.75,0,0,1,.75-.75H95.573a.75.75,0,0,1,.75.75V56.574A.75.75,0,0,1,95.573,57.324Zm-44.606-1.5H94.823V46.012H50.967Z"/><path d="M95.573,46.012h-39.7a.75.75,0,0,1-.75-.75V33.949a.75.75,0,0,1,.75-.75h39.7a.75.75,0,0,1,.75.75V45.262A.75.75,0,0,1,95.573,46.012Zm-38.95-1.5h38.2V34.7h-38.2Z"/><path d="M95.573,34.7H61.529a.75.75,0,0,1-.75-.75V22.637a.75.75,0,0,1,.75-.75H95.573a.75.75,0,0,1,.75.75V33.949A.75.75,0,0,1,95.573,34.7ZM62.279,33.2H94.823V23.387H62.279Z"/><path d="M103,102.574H95.573a.75.75,0,0,1-.75-.75V8.177a.75.75,0,0,1,.75-.75H103a.75.75,0,0,1,.75.75v93.647A.75.75,0,0,1,103,102.574Zm-6.677-1.5h5.927V8.927H96.323Z"/><path d="M7,78.78a.749.749,0,0,1-.629-1.157L51.593,7.77a.749.749,0,0,1,.629-.343h5.243a.75.75,0,0,1,0,1.5H52.631l-45,69.511A.752.752,0,0,1,7,78.78Z"/><path d="M20.05,91.262a.75.75,0,0,1-.75-.75V57.86a.75.75,0,0,1,1.5,0V90.512A.75.75,0,0,1,20.05,91.262Z"/><path d="M24.05,91.262a.75.75,0,0,1-.75-.75V51.679a.75.75,0,0,1,1.5,0V90.512A.75.75,0,0,1,24.05,91.262Z"/><path d="M37.018,79.949a.75.75,0,0,1-.75-.75V31.634a.75.75,0,0,1,1.5,0V79.2A.75.75,0,0,1,37.018,79.949Z"/><path d="M41.018,68.637a.75.75,0,0,1-.75-.75V25.452a.75.75,0,1,1,1.5,0V67.887A.75.75,0,0,1,41.018,68.637Z"/><path d="M50.217,46.012a.75.75,0,0,1-.75-.75V11.275a.75.75,0,1,1,1.5,0V45.262A.75.75,0,0,1,50.217,46.012Z"/>
		</symbol>
		<symbol id="icon-metal" viewBox="-20 -20 120 120">
			<title>metal</title>
			<path d="M91.213,9.407c0-0.343-0.277-0.62-0.619-0.62H36.055v0.62l-0.438-0.439L8.969,35.617c-0.112,0.112-0.182,0.267-0.182,0.437  v6.048c0,0.342,0.278,0.619,0.62,0.619h14.927c4.796,0,8.698,3.903,8.698,8.7v8.623L8.97,84.106  c-0.113,0.111-0.183,0.269-0.183,0.438v6.049c0,0.342,0.278,0.619,0.62,0.619h54.538c0.172,0,0.327-0.068,0.439-0.183L91.03,64.384  c0.117-0.115,0.183-0.273,0.183-0.439v-6.046c0-0.343-0.277-0.621-0.619-0.621H75.666c-4.796,0-8.698-3.901-8.698-8.699v-8.623  L91.03,15.892l-0.437-0.437h0.619V9.407z M64.565,36.312l25.408-25.408v4.295L64.565,40.606V36.312z M36.312,10.026h52.785  L63.689,35.434H10.903L36.312,10.026z M33.032,61.796v13.43c0,4.798-3.902,8.7-8.698,8.7H10.903L33.032,61.796z M63.325,89.974  H10.026v-4.809h14.308c5.48,0,9.938-4.459,9.938-9.939V51.421c0-5.48-4.458-9.938-9.938-9.938H10.026v-4.808h53.299v4.808H49.019  c-5.479,0-9.938,4.458-9.938,9.938v23.805c0,5.48,4.459,9.939,9.938,9.939h14.307V89.974z M64.565,89.097v-4.295l25.408-25.408  v4.295L64.565,89.097z M75.666,58.518h13.431L63.689,83.926H49.019c-4.796,0-8.698-3.902-8.698-8.7V51.421  c0-4.797,3.902-8.7,8.698-8.7h14.927c0.172,0,0.327-0.069,0.439-0.182l1.344-1.344v7.383C65.729,54.06,70.187,58.518,75.666,58.518z  "/>
		</symbol>
		<symbol id="icon-roof" viewBox="1000 1000 8000 8000">
			<title>roof</title>
			<g id="_2533953398672">
			<path class="fil1" d="M1807 4069c0,-69 56,-125 125,-125 69,0 125,56 125,125l0 2706c0,69 -56,125 -125,125 -69,0 -125,-56 -125,-125l0 -2706z"/>
			<path class="fil1" d="M4005 3396c0,-69 56,-125 125,-125 69,0 125,56 125,125l0 2671c0,69 -56,125 -125,125 -69,0 -125,-56 -125,-125l0 -2671z"/>
			<path class="fil1" d="M5695 4452c0,-69 56,-125 125,-125 69,0 125,56 125,125l0 2671c0,69 -56,125 -125,125 -69,0 -125,-56 -125,-125l0 -2671z"/>
			<path class="fil1" d="M7943 3788c0,-69 56,-125 125,-125 69,0 125,56 125,125l0 2619c0,69 -56,125 -125,125 -69,0 -125,-56 -125,-125l0 -2619z"/>
			<path class="fil1" d="M5649 4635c-66,19 -135,-19 -155,-85 -19,-66 19,-135 85,-154l2883 -855c66,-19 136,19 155,85 20,66 -18,135 -84,155l-2884 854z"/>
			<path class="fil1" d="M4582 3126c66,-19 135,19 155,85 19,66 -19,135 -85,155l-1178 349c152,9 306,28 460,60 1155,241 1746,635 1748,636 58,37 74,115 36,173 -38,57 -115,73 -173,36 -1,-1 -555,-369 -1662,-601 -576,-120 -1165,-48 -1595,47l-657 194c-66,20 -135,-18 -155,-84 -18,-63 15,-129 76,-152 26,-10 282,-111 662,-196l2368 -702z"/>
			<path class="fil1" d="M2739 3932c-64,26 -137,-5 -162,-69 -26,-64 5,-137 69,-162 3,-2 1216,-494 2384,-250 1155,241 1747,634 1748,635 58,38 74,115 37,173 -38,58 -116,74 -173,36 -2,-1 -556,-369 -1663,-600 -1094,-229 -2237,236 -2240,237z"/>
			<path class="fil1" d="M4532 3402c-63,25 -136,-6 -162,-70 -25,-64 6,-136 70,-162 3,-1 1216,-494 2384,-250 1155,242 1747,635 1748,636 58,38 74,115 36,173 -37,57 -115,74 -172,36 -2,-1 -556,-369 -1663,-601 -1094,-228 -2237,236 -2241,238z"/>
			<path class="fil1" d="M3788 3631c-64,26 -137,-5 -163,-69 -25,-64 6,-136 70,-162 3,-1 1216,-494 2384,-250 1155,241 1747,635 1748,636 58,37 74,115 36,173 -37,57 -115,73 -172,36 -2,-1 -556,-369 -1663,-601 -1094,-228 -2237,236 -2240,237z"/>
			<path class="fil1" d="M1818 6929c-70,0 -125,-56 -125,-125 0,-69 55,-125 125,-125l229 0c69,0 125,56 125,125 0,69 -56,125 -125,125l-229 0z"/>
			<path class="fil1" d="M4015 6192c-69,0 -125,-56 -125,-125 0,-70 56,-125 125,-125l230 0c69,0 125,55 125,125 0,69 -56,125 -125,125l-230 0z"/>
			<path class="fil1" d="M5705 7248c-69,0 -125,-56 -125,-125 0,-70 56,-125 125,-125l230 0c69,0 125,55 125,125 0,69 -56,125 -125,125l-230 0z"/>
			<path class="fil1" d="M7953 6532c-69,0 -125,-56 -125,-125 0,-69 56,-125 125,-125l230 0c69,0 125,56 125,125 0,69 -56,125 -125,125l-230 0z"/>
			</g>
		</symbol>
		<symbol id="icon-person" viewBox="0 0 24 24">
			<title>person</title>
			<circle cx="12" cy="8" r="3" fill="none" stroke-width="1.73333" stroke-linecap="round"/>
			<path fill-rule="evenodd" clip-rule="evenodd" d="M18.5684 17.0688C18.6834 16.9872 18.738 16.8441 18.7028 16.7076C18.004 14.0038 15.1555 12.1328 11.9993 12.1328C8.84307 12.1328 5.99454 14.0038 5.29577 16.7076C5.2605 16.8441 5.31513 16.9872 5.43011 17.0688C5.73086 17.2822 6.04333 17.4801 6.36637 17.6615C6.59643 17.7907 6.87754 17.6222 6.92893 17.3634C7.30307 15.4795 9.30848 13.8661 11.9993 13.8661C14.69 13.8661 16.6955 15.4795 17.0696 17.3634C17.121 17.6222 17.4021 17.7907 17.6322 17.6615C17.9552 17.4801 18.2677 17.2822 18.5684 17.0688Z" stroke="none"/>
		</symbol>
		<symbol id="icon-mobile" viewBox="0 0 10 16">
			<title>mobile</title>
			<path d="M0 2C0 1.46957 0.210714 0.960859 0.585786 0.585786C0.960859 0.210714 1.46957 0 2 0L8 0C8.53043 0 9.03914 0.210714 9.41421 0.585786C9.78929 0.960859 10 1.46957 10 2V14C10 14.5304 9.78929 15.0391 9.41421 15.4142C9.03914 15.7893 8.53043 16 8 16H2C1.46957 16 0.960859 15.7893 0.585786 15.4142C0.210714 15.0391 0 14.5304 0 14V2ZM6 13C6 12.7348 5.89464 12.4804 5.70711 12.2929C5.51957 12.1054 5.26522 12 5 12C4.73478 12 4.48043 12.1054 4.29289 12.2929C4.10536 12.4804 4 12.7348 4 13C4 13.2652 4.10536 13.5196 4.29289 13.7071C4.48043 13.8946 4.73478 14 5 14C5.26522 14 5.51957 13.8946 5.70711 13.7071C5.89464 13.5196 6 13.2652 6 13Z" stroke="none"/>
		</symbol>
		<symbol id="icon-callback" viewBox="0 0 100 100">
			<title>callback</title>
			<path d="M87.123,28.787h-15.91l5.303-5.303C69.433,16.401,60.016,12.5,50,12.5c-10.017,0-19.434,3.901-26.517,10.984   C16.4,30.566,12.5,39.983,12.5,50c0,2.071-1.679,3.75-3.75,3.75S5,52.071,5,50c0-12.02,4.681-23.321,13.181-31.82   C26.68,9.681,37.98,5,50,5s23.32,4.681,31.819,13.18l0,0l5.304-5.304V28.787z"/><path d="M49.979,87.5c2.07,0,3.75,1.68,3.75,3.75c0,2.07-1.68,3.75-3.75,3.75c-2.08,0-3.75-1.68-3.75-3.75   C46.229,89.18,47.91,87.5,49.979,87.5z"/><path d="M65.765,84.383c2.07,0,3.75,1.68,3.75,3.75c0,2.07-1.68,3.75-3.75,3.75c-2.08,0-3.75-1.68-3.75-3.75   C62.015,86.063,63.696,84.383,65.765,84.383z"/><path d="M79.17,75.42c2.07,0,3.75,1.68,3.75,3.75c0,2.07-1.68,3.75-3.75,3.75c-2.08,0-3.75-1.68-3.75-3.75   C75.42,77.1,77.101,75.42,79.17,75.42z"/><path d="M34.195,84.363c2.07,0,3.75,1.68,3.75,3.75c0,2.07-1.68,3.75-3.75,3.75c-2.08,0-3.75-1.68-3.75-3.75   C30.445,86.043,32.125,84.363,34.195,84.363z"/><path d="M20.826,75.42c2.07,0,3.75,1.68,3.75,3.75c0,2.07-1.68,3.75-3.75,3.75c-2.08,0-3.75-1.68-3.75-3.75   C17.076,77.1,18.757,75.42,20.826,75.42z"/><path d="M11.88,62.04c2.07,0,3.75,1.68,3.75,3.75c0,2.07-1.68,3.75-3.75,3.75c-2.08,0-3.75-1.68-3.75-3.75   C8.13,63.72,9.811,62.04,11.88,62.04z"/><path d="M72.5,59v0.839c0,3.304-1.313,6.474-3.649,8.81v0c-2.466,2.466-5.81,3.851-9.296,3.851h0c-2.328,0-4.614-0.618-6.624-1.791   C43.143,65,35,56.857,29.291,47.07c-1.173-2.011-1.791-4.297-1.791-6.624c0-3.487,1.385-6.831,3.851-9.296v0   c2.337-2.337,5.506-3.649,8.81-3.649H41l4.5,12L41,44c3.961,5.941,9.059,11.039,15,15l4.5-4.5L72.5,59z"/>
		</symbol>
		<symbol id="icon-mail" viewBox="0 0 100 90">
			<title>mail</title>
			<path d="M83.8,34.5c0-6.6-5.4-12-12-12H28.2c-6.6,0-12,5.4-12,12v31c0,6.6,5.4,12,12,12h43.6c6.6,0,12-5.4,12-12V34.5z M28.2,26.5   h43.6c3.6,0,6.7,2.5,7.7,5.8l-27,21c-1.4,1.1-3.5,1.1-4.9,0l-27-21C21.5,29,24.6,26.5,28.2,26.5z M71.8,73.5H28.2c-4.4,0-8-3.6-8-8   V37.1l24.9,19.4c1.4,1.1,3.2,1.7,4.9,1.7c1.7,0,3.5-0.6,4.9-1.7l24.9-19.4v28.4C79.8,69.9,76.2,73.5,71.8,73.5z"/>
		</symbol>
		<symbol id="icon-star" viewBox="0 0 18 18">
			<title>star</title>
			<path fill-rule="evenodd" clip-rule="evenodd" d="M9 18C9.77326 11.7151 11.5116 9.82558 18 9C11.5116 8.17442 9.77326 6.28488 9 0C8.22674 6.28488 6.48837 8.17442 -6.69346e-07 9C6.48837 9.82558 8.22674 11.7151 9 18Z"  stroke="none"/>
		</symbol>
		<symbol id="icon-compass" viewBox="0 0 96 96">
			<title>compass</title>
			<path d="M87.113,31.738H64.557l-2.595-8.164c1.573-1.686,2.538-3.945,2.538-6.428c0-3.784-2.209-7.124-5.598-8.621V6.223  c0-2.114-1.72-3.834-3.834-3.834s-3.834,1.72-3.834,3.834v2.302c-3.389,1.497-5.598,4.837-5.598,8.621  c0,2.482,0.965,4.742,2.538,6.428l-2.595,8.164H24.997v-6.977c0-0.525-0.28-1.01-0.734-1.273c-0.231-0.134-0.42-0.261-0.603-0.384  c-1.185-0.797-1.971-1.122-5.016-1.122c-4.434,0-11.227,5.03-11.227,11.227v49.174c0,6.191,5.037,11.227,11.227,11.227h68.47  c0.813,0,1.471-0.659,1.471-1.471v-58.93C88.584,32.397,87.925,31.738,87.113,31.738z M68.913,55.158L68.11,60.55l-3.087-9.712  h2.517L68.913,55.158z M38.318,47.896c-0.298,0-0.55-0.252-0.55-0.55c0-0.298,0.252-0.55,0.55-0.55h33.503  c0.298,0,0.55,0.252,0.55,0.55c0,0.298-0.252,0.55-0.55,0.55H38.318z M42.598,50.838h2.517l-3.087,9.712l-0.803-5.392L42.598,50.838  z M52.906,26.325l-5.571,17.528h-2.517l5.84-18.374C51.36,25.852,52.114,26.138,52.906,26.325z M53.338,34.68H56.8l2.915,9.172  h-9.293L53.338,34.68z M54.273,31.738l0.796-2.505l0.796,2.505H54.273z M62.803,43.853l-5.571-17.528  c0.792-0.187,1.546-0.472,2.248-0.845l5.84,18.374H62.803z M53.143,10.948c0.616-0.191,1.035-0.761,1.035-1.405v-3.32  c0-0.483,0.408-0.891,0.891-0.891S55.96,5.74,55.96,6.223v3.32c0,0.645,0.42,1.214,1.035,1.405c2.729,0.847,4.563,3.338,4.563,6.198  c0,3.578-2.911,6.489-6.489,6.489s-6.489-2.911-6.489-6.489C48.58,14.286,50.414,11.795,53.143,10.948z M10.358,33.209  c0-4.534,5.485-8.285,8.285-8.285c2.451,0,2.74,0.195,3.374,0.621c0.012,0.008,0.024,0.017,0.037,0.025v46.115  c-1.097-0.349-2.249-0.529-3.411-0.529c-3.277,0-6.23,1.411-8.285,3.658V33.209z M85.642,90.668H18.643  c-4.568,0-8.285-3.717-8.285-8.285c0-4.568,3.717-8.285,8.285-8.285c1.458,0,2.891,0.384,4.145,1.11  c0.455,0.263,1.016,0.264,1.472,0.001c0.456-0.263,0.737-0.749,0.737-1.275V34.68h19.649l-2.915,9.172h-3.413  c-1.926,0-3.493,1.567-3.493,3.493c0,1.926,1.567,3.493,3.493,3.493h1.193l-1.193,3.753c-0.068,0.214-0.086,0.44-0.053,0.662  l1.788,12.008c0.101,0.677,0.655,1.195,1.338,1.25c0.04,0.003,0.079,0.005,0.118,0.005c0.636,0,1.206-0.411,1.401-1.026  l5.293-16.653h13.733l5.293,16.653c0.195,0.615,0.765,1.026,1.401,1.026c0.039,0,0.079-0.002,0.118-0.005  c0.682-0.055,1.237-0.573,1.338-1.25l1.788-12.008c0.033-0.222,0.015-0.448-0.053-0.662l-1.193-3.753h1.193  c1.926,0,3.493-1.567,3.493-3.493c0-1.926-1.567-3.493-3.493-3.493h-3.413l-2.915-9.172h20.149V90.668z M72.289,72.551h-38.53  c-2.902,0-5.264,2.361-5.264,5.264v1.517c0,2.902,2.361,5.264,5.264,5.264h38.53c0.258,0,0.512-0.068,0.736-0.197l7.882-4.551  c0.455-0.263,0.736-0.749,0.736-1.274s-0.28-1.011-0.736-1.274l-7.882-4.551C72.801,72.619,72.548,72.551,72.289,72.551z   M38.414,75.493h32.404v1.608H38.414V75.493z M38.414,80.044h32.404v1.608H38.414V80.044z M31.438,79.331v-1.517  c0-1.28,1.041-2.321,2.321-2.321h1.713v6.159h-1.713C32.479,81.652,31.438,80.611,31.438,79.331z M73.761,80.575V76.57l3.468,2.003  L73.761,80.575z M55.069,22.142c2.755,0,4.996-2.241,4.996-4.996c0-2.755-2.241-4.996-4.996-4.996s-4.996,2.241-4.996,4.996  C50.073,19.901,52.314,22.142,55.069,22.142z M55.069,15.093c1.132,0,2.053,0.921,2.053,2.053c0,1.132-0.921,2.053-2.053,2.053  s-2.053-0.921-2.053-2.053C53.016,16.014,53.937,15.093,55.069,15.093z"/>
		</symbol>
		<symbol id="icon-new" viewBox="0 0 67 72">
			<title>new</title>
			<path d="M19 43V34H20.1896L25.2055 40.7532H24.8866V34H26.3583V43H25.1687L20.1651 36.2468H20.4717V43H19Z" stroke="none"/>
			<path d="M28.2577 43V34H34.0831V35.2894H29.7785V37.7787H33.801V39.0809H29.7785V41.6979H34.0831V43H28.2577Z" stroke="none"/>
			<path d="M37.9191 43L34.8655 34H36.5088L38.8635 41.3787H38.3729L40.9115 34H42.0888L44.4435 41.3787H43.9897L46.4548 34H48L44.9218 43H43.6096L41.3285 36.0809H41.5983L39.2314 43H37.9191Z" stroke="none"/>
			<path d="M26.3924 15.2258L32.1066 17.7673C32.9013 18.1208 33.8103 18.1119 34.598 17.7431L40.2616 15.091C40.7316 14.8709 41.2919 15.0469 41.5516 15.4963L44.6806 20.9111C45.1157 21.6642 45.8563 22.1913 46.7104 22.3559L52.8513 23.5393C53.3609 23.6375 53.7107 24.1092 53.6566 24.6254L53.0053 30.8453C52.9147 31.7103 53.204 32.5721 53.7982 33.2073L58.0707 37.7742C58.4252 38.1532 58.431 38.7404 58.0838 39.1262L53.9009 43.7754C53.3192 44.4219 53.0467 45.2892 53.1541 46.1523L53.9262 52.3583C53.9903 52.8733 53.6498 53.3518 53.1422 53.4599L47.0255 54.7625C46.1748 54.9436 45.4446 55.4851 45.0241 56.2465L42.001 61.7211C41.7501 62.1754 41.1934 62.3623 40.7192 62.1514L35.005 59.6099C34.2103 59.2564 33.3013 59.2653 32.5136 59.6341L26.8499 62.2862C26.3799 62.5063 25.8197 62.3303 25.56 61.881L22.431 56.4661C21.9958 55.713 21.2552 55.1859 20.4012 55.0213L14.2603 53.8379C13.7507 53.7397 13.4009 53.268 13.4549 52.7518L14.1063 46.5319C14.1969 45.6669 13.9076 44.8051 13.3134 44.17L9.04086 39.603C8.68631 39.224 8.6806 38.6368 9.02772 38.251L13.2106 33.6019C13.7924 32.9553 14.0648 32.088 13.9575 31.2249L13.1853 25.0189C13.1212 24.5039 13.4618 24.0254 13.9694 23.9173L20.0861 22.6148C20.9368 22.4336 21.667 21.8922 22.0875 21.1308L25.1106 15.6561C25.3615 15.2018 25.9182 15.0149 26.3924 15.2258Z" fill="none" stroke-width="2"/>
		</symbol>
		<symbol id="icon-price" viewBox="0 0 100 100">
			<title>price</title>
			<path d="M68.611,29.444c0,2.387,1.941,4.328,4.328,4.328s4.328-1.941,4.328-4.328s-1.941-4.328-4.328-4.328  S68.611,27.058,68.611,29.444z M74.268,29.444c0,0.732-0.596,1.328-1.328,1.328s-1.328-0.596-1.328-1.328s0.596-1.328,1.328-1.328  S74.268,28.712,74.268,29.444z M88.991,14.194h-1.969v-3.398c0-1.492-1.215-2.707-2.707-2.707H15.081  c-1.492,0-2.707,1.215-2.707,2.707v3.398h-1.365c-2.823,0-5.12,2.297-5.12,5.121V74.79c0,2.823,2.297,5.12,5.12,5.12h17.418  C32.919,87.108,40.907,91.911,50,91.911s17.081-4.803,21.573-12.001h17.418c2.823,0,5.12-2.297,5.12-5.12V19.315  C94.111,16.491,91.814,14.194,88.991,14.194z M15.374,11.089h68.648v3.105H15.374V11.089z M50,88.911  c-12.359,0-22.414-10.054-22.414-22.412c0-0.931,0.058-1.868,0.172-2.788C29.145,52.522,38.707,44.085,50,44.085  c2.895,0,5.707,0.542,8.362,1.61c8.536,3.433,14.052,11.599,14.052,20.804C72.414,78.857,62.359,88.911,50,88.911z M91.111,34.655  H72.948c-2.874,0-5.212-2.338-5.212-5.211c0-2.874,2.338-5.213,5.212-5.213h18.163V34.655z M91.111,21.231H72.948  c-4.528,0-8.212,3.685-8.212,8.213c0,4.527,3.684,8.211,8.212,8.211h18.163V74.79c0,1.169-0.951,2.12-2.12,2.12H73.174  c1.435-3.18,2.24-6.702,2.24-10.411c0-10.437-6.254-19.695-15.932-23.587C56.47,41.7,53.28,41.085,50,41.085  c-12.805,0-23.646,9.568-25.219,22.257c-0.13,1.041-0.195,2.104-0.195,3.157c0,3.709,0.806,7.231,2.24,10.411H11.009  c-1.169,0-2.12-0.951-2.12-2.12V19.315c0-1.17,0.951-2.121,2.12-2.121h77.982c1.169,0,2.12,0.951,2.12,2.121V21.231z M52.117,67.998  c2.721,0,5.043-1.715,5.959-4.117h2.028c0.828,0,1.5-0.672,1.5-1.5s-0.672-1.5-1.5-1.5h-1.651c-0.366-3.173-3.066-5.646-6.336-5.646  H44.12c-0.828,0-1.5,0.672-1.5,1.5s0.672,1.5,1.5,1.5h7.997c1.612,0,2.959,1.135,3.296,2.646H39.896c-0.828,0-1.5,0.672-1.5,1.5  s0.672,1.5,1.5,1.5h14.716c-0.619,0.682-1.503,1.117-2.494,1.117h-4.324c-0.029,0-0.058,0.001-0.087,0.003  c-2.643,0.073-4.883,1.764-5.779,4.113h-2.031c-0.828,0-1.5,0.672-1.5,1.5s0.672,1.5,1.5,1.5h1.655  c0.365,3.174,3.065,5.646,6.334,5.646h7.686c0.828,0,1.5-0.672,1.5-1.5s-0.672-1.5-1.5-1.5h-7.686c-1.61,0-2.957-1.135-3.295-2.646  h15.515c0.828,0,1.5-0.672,1.5-1.5s-0.672-1.5-1.5-1.5H45.394c0.618-0.681,1.502-1.116,2.491-1.116H52.117z"/>
		</symbol>
		<symbol id="icon-hands" viewBox="0 0 61 58">
			<title>hands</title>
			<path d="M61.0644 28.3954C61.0629 27.4679 60.7904 26.5268 60.1873 25.7514L55.3491 19.5562C54.5389 18.5265 53.3056 18.0025 52.0732 18C51.3399 18 50.5932 18.1884 49.9333 18.6001L45.2157 21.5372C44.7196 21.8539 43.8687 22.0709 43.0473 22.0656C42.4089 22.0685 41.7922 21.9406 41.3847 21.7391L36.7648 19.5C36.0194 19.1411 35.1888 18.9939 34.3534 18.9924C33.1535 18.9977 31.9387 19.2932 30.9624 19.9703L30.4232 20.3486C29.9925 20.1335 29.3337 19.8056 28.5879 19.4341C27.6934 18.9953 26.6417 18.818 25.5793 18.8147C24.6195 18.8176 23.6602 18.9653 22.8175 19.3218L19.6709 20.6653C19.1588 20.8876 18.3442 21.0324 17.535 21.0291C16.7257 21.0324 15.9125 20.8876 15.4004 20.6653L12.2509 19.3213C11.6764 19.0762 11.0622 18.9711 10.4538 18.9706C9.7529 18.9711 9.05644 19.1096 8.40878 19.3721C7.76213 19.6361 7.16202 20.0255 6.68373 20.5602L0.949647 26.9864C0.314136 27.6959 -0.00144475 28.5906 4.97194e-06 29.471C-0.00144698 30.5211 0.447722 31.574 1.31368 32.3121L6.66303 36.879L4.1249 39.5278C3.4255 40.2581 3.07701 41.2055 3.07701 42.1422C3.07556 43.1385 3.471 44.1449 4.25462 44.8855L4.7696 45.3752C5.25459 45.8353 5.83734 46.1283 6.44719 46.2848C6.14129 46.8481 5.97383 47.4651 5.97528 48.0836C5.97382 49.0809 6.36927 50.0863 7.15143 50.8279L7.14998 50.8274L7.66643 51.319C8.40117 52.016 9.35418 52.3633 10.2927 52.3628C10.797 52.3633 11.3023 52.262 11.7767 52.0634C11.9432 52.7396 12.2873 53.3828 12.8285 53.8966L13.3449 54.3882C14.0797 55.0852 15.0312 55.4325 15.9711 55.432C16.7059 55.4325 17.4445 55.216 18.0801 54.7951C18.2659 55.3937 18.5844 55.9609 19.0694 56.422L19.5858 56.9136C20.3191 57.6105 21.2721 57.9578 22.2107 57.9573C23.2107 57.9578 24.2204 57.565 24.9662 56.7862L27.2086 54.443L30.2555 57.2648C30.9849 57.9419 31.921 58.2785 32.845 58.2766C33.8599 58.2785 34.8841 57.8717 35.6314 57.0711L36.1178 56.5494C36.5375 56.098 36.8119 55.5643 36.9707 55.0069L38.1512 56.0971C38.882 56.7713 39.8166 57.1065 40.7392 57.106C41.7557 57.1065 42.7827 56.6996 43.5305 55.8985L44.014 55.3779C44.5726 54.7807 44.8867 54.0411 44.984 53.286C45.2957 53.3659 45.6113 53.4202 45.9298 53.4202C46.9462 53.4202 47.9704 53.0138 48.7192 52.2132L49.2042 51.6926C49.8823 50.9656 50.2192 50.0332 50.2177 49.1139C50.2177 48.8286 50.1766 48.5443 50.1136 48.2639C50.9568 48.152 51.7743 47.7757 52.3958 47.1078L52.8822 46.5862C53.5603 45.8592 53.8957 44.9268 53.8957 44.0065C53.8972 42.9943 53.4892 41.9729 52.6843 41.2284L51.7748 40.3876L59.9847 31.3043C60.7233 30.4848 61.0631 29.4318 61.0645 28.3954L61.0644 28.3954ZM5.68748 43.3895C5.33076 43.052 5.15457 42.603 5.15312 42.142C5.15457 41.7094 5.30946 41.2871 5.62794 40.9548L10.8253 35.5278C11.1641 35.1742 11.6156 34.9974 12.0793 34.9965C12.513 34.9969 12.937 35.1534 13.2719 35.4692L13.7855 35.9593C13.7855 35.9593 14.3169 36.7459 14.3184 37.2079C14.3169 37.5537 14.2129 37.8903 14.011 38.1819C13.9936 38.1993 8.40171 44.0313 8.40171 44.0313C8.10453 44.2415 7.75361 44.35 7.39641 44.3514C6.96129 44.35 6.53584 44.1945 6.2038 43.8792L5.68748 43.3895ZM10.2939 50.2943C9.85875 50.2938 9.43475 50.1374 9.10126 49.8221L8.58481 49.331L8.58336 49.3305C8.22954 48.9944 8.05191 48.5439 8.05191 48.0829C8.05191 47.6504 8.20824 47.2281 8.52527 46.8958C8.52527 46.8958 15.453 39.6797 15.5111 39.6099C15.8421 39.2912 16.2686 39.1265 16.7095 39.126C17.1446 39.1265 17.5686 39.2825 17.9021 39.5982L18.4186 40.0898C18.7738 40.426 18.95 40.8759 18.9515 41.3374C18.95 41.77 18.7942 42.1928 18.4766 42.5255L11.546 49.765C11.2086 50.1166 10.7575 50.2929 10.2939 50.2943H10.2939ZM15.9728 53.3636C15.5377 53.3631 15.1137 53.2067 14.7802 52.8909L14.2628 52.3998C13.9075 52.0632 13.7299 51.6132 13.7299 51.1522C13.7299 50.7662 13.8611 50.3918 14.1123 50.0803L18.937 45.0412C19.2622 44.7477 19.6703 44.5927 20.0928 44.5927C20.5279 44.5932 20.9519 44.7492 21.2854 45.065L21.8028 45.5566C22.1567 45.8927 22.3343 46.3426 22.3357 46.8038C22.3343 47.2373 22.177 47.6601 21.8609 47.9919L17.2245 52.8333C16.8877 53.1859 16.4366 53.3622 15.9728 53.3637V53.3636ZM23.4639 55.3581C23.1266 55.7107 22.675 55.887 22.2113 55.8884C21.7762 55.888 21.3522 55.7315 21.0187 55.4157L20.5023 54.9246C20.1485 54.5885 19.9708 54.138 19.9694 53.677C19.9708 53.2435 20.1267 52.8207 20.4442 52.4899L23.37 49.4328C23.7088 49.0802 24.1604 48.9029 24.6241 48.9025C25.0578 48.9029 25.4832 49.0589 25.8167 49.3752L26.3341 49.8663C26.6879 50.2024 26.8641 50.6524 26.8656 51.1135C26.8641 51.547 26.7083 51.9698 26.3908 52.3016L23.4639 55.3581ZM51.363 45.1782L50.878 45.6989C50.5392 46.0612 50.0799 46.2447 49.6095 46.2452C49.1826 46.2447 48.7648 46.0946 48.4333 45.7875L40.2597 38.2236L38.8464 39.7381L47.5954 47.8489C47.9599 48.1865 48.1429 48.6446 48.1458 49.1124C48.1428 49.5387 47.9923 49.9542 47.685 50.2845L47.2014 50.8052C46.8626 51.1675 46.4033 51.3501 45.9329 51.3515C45.506 51.3501 45.0868 51.1994 44.7582 50.8948L36.5817 43.3309L35.1698 44.8454L42.4257 51.5598C42.7757 51.8949 42.9543 52.3415 42.9543 52.7997C42.9543 53.2244 42.8037 53.6405 42.4964 53.9703L42.0114 54.491C41.674 54.8533 41.2133 55.0368 40.7418 55.0383C40.3135 55.0368 39.8958 54.8862 39.5657 54.5815L32.3244 47.8914H32.3229L32.3215 47.8899L30.912 49.4068L30.9135 49.4083L30.9406 49.434L34.5674 52.7837C34.8888 53.114 35.0553 53.5378 35.0567 53.9756C35.0552 54.3985 34.9062 54.8121 34.5988 55.1419L34.1138 55.6636C33.775 56.0258 33.3171 56.208 32.8481 56.2094C32.4212 56.2079 32.0035 56.0578 31.6734 55.7517L28.5157 52.8258C28.7907 52.2862 28.9441 51.7011 28.9441 51.1136C28.9455 50.1173 28.5501 49.1123 27.7679 48.3703L27.2505 47.8787C26.5172 47.1822 25.5656 46.8345 24.6271 46.8359C24.5541 46.8359 24.481 46.8524 24.4093 46.8567C24.4093 46.8393 24.4137 46.8214 24.4137 46.8039C24.4151 45.8077 23.2375 44.0592 23.2375 44.0592L22.7211 43.569C22.1722 43.0484 21.5028 42.7234 20.8058 42.5926C20.9496 42.1858 21.0304 41.762 21.0304 41.3377C21.0304 40.3414 20.6364 39.3359 19.8543 38.5944L19.3378 38.1028C18.6031 37.4058 17.6516 37.0576 16.713 37.0586C16.6031 37.0586 16.4952 37.0808 16.3862 37.0905C16.3562 36.1335 15.9714 35.1774 15.2217 34.4654V34.4649L14.7067 33.9753C13.972 33.2773 13.0205 32.9296 12.0819 32.93C11.0804 32.9296 10.0722 33.3224 9.3264 34.1012L8.09943 35.3822L2.66495 30.7443C2.27436 30.4096 2.07929 29.947 2.07784 29.4724C2.07929 29.0747 2.21434 28.6848 2.50329 28.3613L8.23737 21.9351C8.46486 21.6794 8.80174 21.4484 9.19573 21.288C9.58972 21.1277 10.0374 21.0396 10.4556 21.0401C10.8201 21.0401 11.1618 21.1059 11.4353 21.2241L14.5833 22.5682C15.471 22.9426 16.501 23.0961 17.5362 23.0995C18.573 23.0961 19.602 22.9426 20.4892 22.5682L23.6359 21.2246C24.1208 21.0129 24.8531 20.8817 25.5806 20.8846C26.3855 20.8798 27.1919 21.0464 27.6594 21.2851C27.9566 21.4329 28.2383 21.5733 28.4996 21.7046L25.2907 23.9621C24.2597 24.6876 23.7035 25.8418 23.705 27.0062C23.7036 27.7767 23.948 28.5614 24.4446 29.2273L24.4431 29.2259L24.8671 29.796C25.6721 30.8668 26.9271 31.417 28.1817 31.42C28.8903 31.42 29.6119 31.2408 30.2552 30.8548L32.1742 29.7015C32.5658 29.4618 33.1568 29.3107 33.7681 29.3136C34.4863 29.3092 35.21 29.5219 35.645 29.842L40.9547 33.6514C42.1362 34.4985 44.0611 36.0697 45.1279 37.0586L51.2735 42.7447C51.638 43.0828 51.8209 43.539 51.8224 44.0079C51.8229 44.4317 51.6709 44.8478 51.3631 45.1781L51.363 45.1782ZM58.4446 29.92L50.2575 38.979L46.5403 35.5407C45.3757 34.465 43.4561 32.8967 42.1682 31.9711L36.86 28.1618C35.9602 27.5239 34.8581 27.2478 33.7686 27.244C32.8417 27.2469 31.9075 27.4488 31.1012 27.9293L29.1835 29.0825C28.8892 29.2598 28.5422 29.3498 28.1821 29.3503C27.5383 29.3523 26.8937 29.052 26.534 28.5623L26.1114 27.9927L26.11 27.9913C25.8854 27.6881 25.7804 27.3476 25.7789 27.0032C25.7818 26.4826 26.0219 25.9769 26.4865 25.6485L32.1611 21.659C32.6519 21.3035 33.5246 21.054 34.3537 21.0603C34.9297 21.0574 35.48 21.1737 35.8566 21.3597L40.4765 23.5988C41.264 23.9771 42.1531 24.1321 43.0471 24.134C44.1961 24.1287 45.3577 23.8783 46.3146 23.2903L51.0338 20.3523C51.3349 20.1639 51.6964 20.0671 52.0735 20.0671C52.7104 20.0656 53.3488 20.3548 53.7104 20.826L58.5486 27.0212C58.8274 27.3762 58.9891 27.8765 58.9891 28.3953C58.991 28.9765 58.7863 29.547 58.4446 29.92L58.4446 29.92Z" stroke="none"/>
		</symbol>
		<symbol id="icon-medal" viewBox="0 0 32 60">
			<title>medal</title>
			<path fill-rule="evenodd" clip-rule="evenodd" d="M16 37.0713C15.3074 31.4955 13.7662 29.8159 8 29.0713C13.7662 28.344 15.3074 26.6644 16 21.0713C16.6926 26.647 18.2338 28.3267 24 29.0713C18.2165 29.8159 16.6753 31.4955 16 37.0713Z" stroke="none"/>
			<circle cx="16" cy="29.0713" r="15" fill="none" stroke-width="2"/>
			<path d="M4.57227 38.2139V57.8475C4.57227 58.686 5.5422 59.1522 6.19696 58.6284L15.3761 51.2851C15.7414 50.9929 16.2603 50.9929 16.6255 51.2851L25.8047 58.6284C26.4595 59.1522 27.4294 58.686 27.4294 57.8475V38.2139" fill="none" stroke-width="2"/>
		</symbol>
		<symbol id="icon-close" viewBox="0 0 100 100">
			<title>close</title>
			<path d="M57.624,50.993l26.688-26.69c1.967-1.97,1.967-5.16,0-7.13c-1.973-1.97-5.165-1.97-7.132,0L50.492,43.861L23.804,17.173  c-1.972-1.97-5.159-1.97-7.132,0c-1.967,1.97-1.967,5.16,0,7.13l26.688,26.69L16.672,77.682c-1.967,1.967-1.967,5.159,0,7.132  c0.989,0.983,2.277,1.476,3.566,1.476c1.293,0,2.582-0.492,3.565-1.476l26.688-26.688l26.688,26.688  c0.983,0.983,2.277,1.476,3.565,1.476c1.289,0,2.577-0.492,3.566-1.476c1.967-1.973,1.967-5.165,0-7.132L57.624,50.993z"/>
		</symbol>
		<symbol id="icon-cart" viewBox="0 0 55 70">
			<title>cart</title>
			<path d="M9.73267 22.5L16.4959 47H45.1196L49.0008 25.7586H10.6072L9.73267 22.5ZM9.73267 22.5H1" fill="none" stroke-width="2" stroke-linecap="round" stroke-linejoin="round"/>
			<path d="M16.5 47L12.8668 51.3598C12.324 52.0111 12.7872 53 13.635 53H47.5" fill="none" stroke-width="2" stroke-linecap="round" stroke-linejoin="round"/>
			<circle cx="37.5" cy="58.5" r="4.5" fill="none" stroke-width="2" stroke-linecap="round" stroke-linejoin="round"/>
			<circle cx="20.5" cy="58.5" r="4.5" fill="none" stroke-width="2" stroke-linecap="round" stroke-linejoin="round"/>
			<path d="M14 36.5H47.5" fill="none" stroke-width="2" stroke-linejoin="round"/>
		</symbol>
		<symbol id="icon-clock" viewBox="0 0 100 100">
			<title>clock</title>
			<path d="m50,10c-22.06,0-40,17.94-40,40s17.94,40,40,40,40-17.94,40-40S72.06,10,50,10Zm0,77c-20.4,0-37-16.6-37-37S29.6,13,50,13s37,16.6,37,37-16.6,37-37,37Z"/><path d="m46.56,17.74s.04,0,.05,0c.27-.03.47-.27.45-.55l-.1-.94c-.03-.28-.28-.47-.55-.45-.27.03-.47.27-.45.55l.1.94c.03.26.24.45.5.45Z"/><path d="m42.66,17.88c.05.23.26.4.49.4.04,0,.07,0,.1-.01.27-.06.44-.32.39-.59l-.2-.93c-.06-.27-.33-.44-.59-.39-.27.06-.44.32-.39.59l.2.93Z"/><path d="m39.35,18.83c.07.21.26.35.48.35.05,0,.1,0,.16-.02.26-.09.41-.37.32-.63l-.29-.9c-.09-.26-.36-.41-.63-.32-.26.09-.41.37-.32.63l.29.9Z"/><path d="m36.14,20.11c.08.19.27.3.46.3.07,0,.14-.01.2-.04.25-.11.37-.41.25-.66l-.39-.87c-.11-.25-.41-.37-.66-.25-.25.11-.37.41-.25.66l.39.87Z"/><path d="m33.1,21.72c.09.16.26.25.43.25.08,0,.17-.02.25-.07.24-.14.32-.44.18-.68l-.47-.82c-.14-.24-.44-.32-.68-.18-.24.14-.32.44-.18.68l.47.82Z"/><path d="m30.48,22.29c-.16-.22-.48-.27-.7-.11-.22.16-.27.47-.11.7l.56.77c.1.13.25.21.4.21.1,0,.21-.03.29-.1.22-.16.27-.47.11-.7l-.56-.77Z"/><path d="m27.69,24.48c-.19-.21-.5-.22-.71-.04-.21.19-.22.5-.04.71l.64.71c.1.11.23.17.37.17.12,0,.24-.04.33-.13.21-.19.22-.5.04-.71l-.64-.71Z"/><path d="m25.15,26.95c-.21-.18-.52-.17-.71.04-.18.21-.17.52.04.71l.71.63c.1.09.22.13.33.13.14,0,.27-.06.37-.17.18-.21.17-.52-.04-.71l-.71-.63Z"/><path d="m22.88,29.68c-.22-.16-.54-.11-.7.11-.16.22-.11.54.11.7l.77.56c.09.06.19.1.29.1.15,0,.31-.07.4-.21.16-.22.11-.54-.11-.7l-.77-.56Z"/><path d="m21.72,33.1l-.82-.47c-.24-.14-.54-.06-.68.18-.14.24-.06.54.18.68l.82.47c.08.05.17.07.25.07.17,0,.34-.09.43-.25.14-.24.06-.54-.18-.68Z"/><path d="m18.84,36.67l.87.39c.07.03.14.04.2.04.19,0,.37-.11.46-.3.11-.25,0-.55-.25-.66l-.87-.39c-.25-.11-.55,0-.66.25s0,.55.25.66Z"/><path d="m17.62,40l.9.29c.05.02.1.02.15.02.21,0,.41-.13.48-.35.08-.26-.06-.54-.32-.63l-.9-.29c-.26-.09-.54.06-.63.32-.08.26.06.54.32.63Z"/><path d="m16.75,43.44l.93.2s.07.01.1.01c.23,0,.44-.16.49-.4.06-.27-.12-.54-.39-.59l-.93-.2c-.26-.06-.54.11-.59.39-.06.27.12.54.39.59Z"/><path d="m16.24,46.95l.94.1s.04,0,.05,0c.25,0,.47-.19.5-.45.03-.27-.17-.52-.44-.55l-.94-.1c-.29-.03-.52.17-.55.44-.03.27.17.52.44.55Z"/><path d="m17.74,53.39c-.03-.27-.26-.48-.55-.44l-.94.1c-.27.03-.47.27-.44.55.03.26.24.45.5.45.02,0,.04,0,.05,0l.94-.1c.27-.03.47-.27.44-.55Z"/><path d="m18.27,56.74c-.06-.27-.33-.44-.59-.39l-.93.2c-.27.06-.44.32-.39.59.05.23.26.4.49.4.04,0,.07,0,.1-.01l.93-.2c.27-.06.44-.32.39-.59Z"/><path d="m19.15,60.02c-.08-.26-.37-.41-.63-.32l-.9.29c-.26.09-.41.37-.32.63.07.21.26.35.48.35.05,0,.1,0,.15-.02l.9-.29c.26-.09.41-.37.32-.63Z"/><path d="m20.36,63.19c-.11-.25-.41-.37-.66-.25l-.87.39c-.25.11-.37.41-.25.66.08.19.27.3.46.3.07,0,.14-.01.2-.04l.87-.39c.25-.11.37-.41.25-.66Z"/><path d="m21.22,66.04l-.82.47c-.24.14-.32.44-.18.68.09.16.26.25.43.25.08,0,.17-.02.25-.07l.82-.47c.24-.14.32-.44.18-.68-.14-.24-.45-.32-.68-.18Z"/><path d="m23.06,68.96l-.77.56c-.22.16-.27.47-.11.7.1.13.25.21.4.21.1,0,.21-.03.29-.1l.77-.56c.22-.16.27-.47.11-.7-.16-.22-.48-.27-.7-.11Z"/><path d="m25.19,71.67l-.71.63c-.21.18-.22.5-.04.71.1.11.24.17.37.17.12,0,.24-.04.33-.13l.71-.63c.21-.18.22-.5.04-.71-.19-.21-.5-.22-.71-.04Z"/><path d="m27.59,74.14l-.64.71c-.19.21-.17.52.04.71.1.09.22.13.33.13.14,0,.27-.06.37-.17l.64-.71c.19-.21.17-.52-.04-.71-.21-.18-.52-.17-.71.04Z"/><path d="m30.23,76.36l-.56.77c-.16.22-.11.54.11.7.09.06.19.1.29.1.15,0,.31-.07.4-.21l.56-.77c.16-.22.11-.54-.11-.7-.22-.16-.54-.11-.7.11Z"/><path d="m33.78,78.09c-.24-.14-.54-.06-.68.18l-.47.82c-.14.24-.06.54.18.68.08.05.17.07.25.07.17,0,.34-.09.43-.25l.47-.82c.14-.24.06-.54-.18-.68Z"/><path d="m36.8,79.64c-.25-.11-.55,0-.66.25l-.39.87c-.11.25,0,.55.25.66.07.03.13.04.2.04.19,0,.37-.11.46-.3l.39-.87c.11-.25,0-.55-.25-.66Z"/><path d="m39.98,80.85c-.27-.09-.54.06-.63.32l-.29.9c-.08.26.06.54.32.63.05.02.1.02.16.02.21,0,.41-.13.48-.35l.29-.9c.08-.26-.06-.54-.32-.63Z"/><path d="m43.25,81.73c-.26-.05-.54.11-.59.39l-.2.93c-.06.27.12.54.39.59.03,0,.07.01.1.01.23,0,.44-.16.49-.4l.2-.93c.06-.27-.12-.54-.39-.59Z"/><path d="m46.61,82.26c-.27-.03-.52.17-.55.45l-.1.94c-.03.27.17.52.45.55.02,0,.04,0,.05,0,.25,0,.47-.19.5-.45l.1-.94c.03-.27-.17-.52-.45-.55Z"/><path d="m53.39,82.26c-.27.03-.47.27-.45.55l.1.94c.03.26.24.45.5.45.02,0,.04,0,.05,0,.27-.03.47-.27.45-.55l-.1-.94c-.03-.28-.28-.48-.55-.45Z"/><path d="m57.34,82.12c-.06-.27-.33-.44-.59-.39-.27.06-.44.32-.39.59l.2.93c.05.23.26.4.49.4.04,0,.07,0,.1-.01.27-.06.44-.32.39-.59l-.2-.93Z"/><path d="m60.65,81.17c-.09-.26-.36-.41-.63-.32-.26.09-.41.37-.32.63l.29.9c.07.21.26.35.48.35.05,0,.1,0,.16-.02.26-.09.41-.37.32-.63l-.29-.9Z"/><path d="m63.86,79.89c-.11-.25-.41-.36-.66-.25-.25.11-.37.41-.25.66l.39.87c.08.19.27.3.46.3.07,0,.14-.01.2-.04.25-.11.37-.41.25-.66l-.39-.87Z"/><path d="m66.9,78.28c-.14-.24-.44-.32-.68-.18-.24.14-.32.44-.18.68l.47.82c.09.16.26.25.43.25.08,0,.17-.02.25-.07.24-.14.32-.44.18-.68l-.47-.82Z"/><path d="m69.77,76.36c-.16-.22-.48-.27-.7-.11-.22.16-.27.47-.11.7l.56.77c.1.13.25.21.4.21.1,0,.21-.03.29-.1.22-.16.27-.47.11-.7l-.56-.77Z"/><path d="m72.41,74.14c-.18-.21-.5-.22-.71-.04-.21.19-.22.5-.04.71l.64.71c.1.11.23.17.37.17.12,0,.24-.04.33-.13.21-.19.22-.5.04-.71l-.64-.71Z"/><path d="m74.81,71.67c-.21-.18-.52-.17-.71.04-.18.21-.17.52.04.71l.71.63c.1.09.22.13.33.13.14,0,.27-.06.37-.17.18-.21.17-.52-.04-.71l-.71-.63Z"/><path d="m77.12,70.32c.09.06.19.1.29.1.15,0,.31-.07.4-.21.16-.22.11-.54-.11-.7l-.77-.56c-.22-.16-.54-.11-.7.11-.16.22-.11.54.11.7l.77.56Z"/><path d="m78.28,66.9l.82.47c.08.05.17.07.25.07.17,0,.34-.09.43-.25.14-.24.06-.54-.18-.68l-.82-.47c-.23-.14-.54-.06-.68.18-.14.24-.06.54.18.68Z"/><path d="m81.16,63.33l-.87-.39c-.25-.11-.55,0-.66.25s0,.55.25.66l.87.39c.07.03.14.04.2.04.19,0,.37-.11.46-.3.11-.25,0-.55-.25-.66Z"/><path d="m82.38,60l-.9-.29c-.26-.09-.54.06-.63.32-.08.26.06.54.32.63l.9.29c.05.02.1.02.15.02.21,0,.41-.13.48-.35.08-.26-.06-.54-.32-.63Z"/><path d="m83.25,56.56l-.93-.2c-.26-.05-.54.11-.59.39-.06.27.12.54.39.59l.93.2s.07.01.1.01c.23,0,.44-.16.49-.4.06-.27-.12-.54-.39-.59Z"/><path d="m83.76,53.05l-.94-.1c-.29-.03-.52.17-.55.44-.03.27.17.52.44.55l.94.1s.04,0,.05,0c.25,0,.47-.19.5-.45.03-.27-.17-.52-.44-.55Z"/><path d="m82.26,46.61c.03.26.24.45.5.45.02,0,.04,0,.05,0l.94-.1c.27-.03.47-.27.44-.55-.03-.27-.27-.48-.55-.44l-.94.1c-.27.03-.47.27-.44.55Z"/><path d="m81.73,43.26c.05.23.26.4.49.4.04,0,.07,0,.1-.01l.93-.2c.27-.06.44-.32.39-.59-.06-.27-.33-.44-.59-.39l-.93.2c-.27.06-.44.32-.39.59Z"/><path d="m80.85,39.98c.07.21.26.35.48.35.05,0,.1,0,.15-.02l.9-.29c.26-.09.41-.37.32-.63-.08-.26-.37-.41-.63-.32l-.9.29c-.26.09-.41.37-.32.63Z"/><path d="m79.64,36.81c.08.19.27.3.46.3.07,0,.14-.01.2-.04l.87-.39c.25-.11.37-.41.25-.66-.11-.25-.41-.37-.66-.25l-.87.39c-.25.11-.37.41-.25.66Z"/><path d="m78.53,34.03c.08,0,.17-.02.25-.07l.82-.47c.24-.14.32-.44.18-.68-.14-.24-.45-.32-.68-.18l-.82.47c-.24.14-.32.44-.18.68.09.16.26.25.43.25Z"/><path d="m76.65,31.14c.1,0,.21-.03.29-.1l.77-.56c.22-.16.27-.47.11-.7-.16-.22-.48-.27-.7-.11l-.77.56c-.22.16-.27.47-.11.7.1.13.25.21.4.21Z"/><path d="m74.85,26.95l-.71.63c-.21.18-.22.5-.04.71.1.11.24.17.37.17.12,0,.24-.04.33-.13l.71-.63c.21-.18.22-.5.04-.71-.19-.21-.5-.22-.71-.04Z"/><path d="m72.04,26.02c.14,0,.27-.06.37-.17l.64-.71c.19-.21.17-.52-.04-.71-.21-.18-.52-.17-.71.04l-.64.71c-.19.21-.17.52.04.71.1.09.22.13.33.13Z"/><path d="m69.36,23.85c.15,0,.31-.07.4-.21l.56-.77c.16-.22.11-.54-.11-.7-.22-.16-.54-.11-.7.11l-.56.77c-.16.22-.11.54.11.7.09.06.19.1.29.1Z"/><path d="m66.22,21.91c.08.05.17.07.25.07.17,0,.34-.09.43-.25l.47-.82c.14-.24.06-.54-.18-.68-.24-.14-.55-.06-.68.18l-.47.82c-.14.24-.06.54.18.68Z"/><path d="m63.2,20.36c.07.03.13.04.2.04.19,0,.37-.11.46-.3l.39-.87c.11-.25,0-.55-.25-.66-.25-.11-.55,0-.66.25l-.39.87c-.11.25,0,.55.25.66Z"/><path d="m60.02,19.15c.05.02.1.02.16.02.21,0,.41-.13.48-.35l.29-.9c.08-.26-.06-.54-.32-.63-.27-.08-.54.06-.63.32l-.29.9c-.08.26.06.54.32.63Z"/><path d="m56.75,18.27s.07.01.1.01c.23,0,.44-.16.49-.4l.2-.93c.06-.27-.12-.54-.39-.59-.26-.06-.54.11-.59.39l-.2.93c-.06.27.12.54.39.59Z"/><path d="m53.39,17.74s.04,0,.05,0c.25,0,.47-.19.5-.45l.1-.94c.03-.27-.17-.52-.45-.55-.27-.03-.52.17-.55.45l-.1.94c-.03.27.17.52.45.55Z"/><path d="m50,19.01c.55,0,1-.45,1-1v-1.9c0-.55-.45-1-1-1s-1,.45-1,1v1.9c0,.55.45,1,1,1Z"/><path d="m18.01,51c.55,0,1-.45,1-1s-.45-1-1-1h-1.9c-.55,0-1,.45-1,1s.45,1,1,1h1.9Z"/><path d="m50,80.99c-.55,0-1,.45-1,1v1.9c0,.55.45,1,1,1s1-.45,1-1v-1.9c0-.55-.45-1-1-1Z"/><path d="m81.99,49c-.55,0-1,.45-1,1s.45,1,1,1h1.9c.55,0,1-.45,1-1s-.45-1-1-1h-1.9Z"/><path d="m74.94,36.61c.48-.28.64-.89.36-1.37-.28-.48-.89-.64-1.37-.36l-22.53,13.14c-.23-.16-.49-.28-.77-.36l.02-4.79c0-.88-1.32-.86-1.32,0,0,0,0,1.9.02,4.79-.27.07-.52.19-.75.34l-13.26-7.92c-.47-.28-1.09-.13-1.37.35s-.13,1.09.35,1.37l13.27,7.93c-.01.09-.03.18-.03.27,0,1.13.77,2.07,1.82,2.34.05,10.11.12,24.69.12,24.69,0,.66,1,.64,1,0l.12-24.69c1.04-.27,1.82-1.22,1.82-2.34,0-.08-.02-.16-.02-.25l22.54-13.14Z"/>
		</symbol>
		<symbol id="icon-garage" viewBox="0 0 47 55">
			<title>garage</title>
			<path d="M46 27.2V51.9074C46 53.012 45.1046 53.9074 44 53.9074H36.5093C35.4047 53.9074 34.5093 53.012 34.5093 51.9074V40.0648C34.5093 37.8557 32.7184 36.0648 30.5093 36.0648H16.4907C14.2816 36.0648 12.4907 37.8557 12.4907 40.0648V51.9074C12.4907 53.012 11.5953 53.9074 10.4907 53.9074H3C1.89543 53.9074 1 53.012 1 51.9074V27.2C1 26.4317 1.44012 25.7313 2.13237 25.398L22.6324 15.5276C23.1807 15.2636 23.8193 15.2636 24.3676 15.5276L44.8676 25.398C45.5599 25.7313 46 26.4317 46 27.2Z" fill="none" stroke-width="2"/>
			<path fill-rule="evenodd" clip-rule="evenodd" d="M23.3426 53.7203C22.8288 49.5842 21.6856 48.3382 17.4082 47.7859C21.6856 47.2464 22.8288 46.0005 23.3426 41.8516C23.8563 45.9876 24.9995 47.2336 29.2769 47.7859C24.9867 48.3382 23.8435 49.5842 23.3426 53.7203Z" stroke="none"/>
		</symbol>
		<symbol id="icon-copy" viewBox="0 0 15 17">
			<title>copy</title>
			<path d="M12.5 0H5C4.08333 0 3.33333 0.75 3.33333 1.66667V11.6667C3.33333 12.5833 4.08333 13.3333 5 13.3333H12.5C13.4167 13.3333 14.1667 12.5833 14.1667 11.6667V1.66667C14.1667 0.75 13.4167 0 12.5 0ZM12.5 11.6667H5V1.66667H12.5V11.6667ZM0 10.8333V9.16667H1.66667V10.8333H0ZM0 6.25H1.66667V7.91667H0V6.25ZM5.83333 15H7.5V16.6667H5.83333V15ZM0 13.75V12.0833H1.66667V13.75H0ZM1.66667 16.6667C0.75 16.6667 0 15.9167 0 15H1.66667V16.6667ZM4.58333 16.6667H2.91667V15H4.58333V16.6667ZM8.75 16.6667V15H10.4167C10.4167 15.9167 9.66667 16.6667 8.75 16.6667ZM1.66667 3.33333V5H0C0 4.08333 0.75 3.33333 1.66667 3.33333Z" stroke="none"/>
		</symbol>
		<symbol id="icon-rating" viewBox="0 0 15 17">
			<title>rating</title>
			<path d="M6.99918 11.1017C7.97555 12.0918 8.58621 13.3938 9 15.0844C9.41378 13.3938 10.0245 12.0918 11.0008 11.1017C12.0029 10.0855 13.3486 9.43965 15.1397 9C13.3486 8.56035 12.0029 7.91449 11.0008 6.89831C10.0245 5.90821 9.41378 4.60624 9 2.91556C8.58621 4.60624 7.97555 5.90821 6.99918 6.89831C5.99711 7.91449 4.65137 8.56035 2.86031 9C4.65137 9.43965 5.99711 10.0855 6.99918 11.1017Z" />
		</symbol>
		<symbol id="icon-instagram" viewBox="0 0 24 24">
			<title>instagram</title>
			<path d="M11.9968 7.9983C9.79333 7.9983 7.99515 9.79651 7.99515 12C7.99515 14.2035 9.79333 16.0017 11.9968 16.0017C14.2002 16.0017 15.9984 14.2035 15.9984 12C15.9984 9.79651 14.2002 7.9983 11.9968 7.9983ZM23.9987 12C23.9987 10.3429 24.0137 8.70077 23.9206 7.04665C23.8275 5.12536 23.3893 3.4202 21.9843 2.01525C20.5764 0.607302 18.8743 0.172009 16.953 0.0789456C15.2959 -0.0141172 13.6539 0.000892936 11.9998 0.000892936C10.3427 0.000892936 8.70061 -0.0141172 7.04652 0.0789456C5.12526 0.172009 3.42014 0.610305 2.01522 2.01525C0.607291 3.42321 0.172005 5.12536 0.0789442 7.04665C-0.014117 8.70377 0.000892919 10.3459 0.000892919 12C0.000892919 13.6541 -0.014117 15.2992 0.0789442 16.9533C0.172005 18.8746 0.610293 20.5798 2.01522 21.9847C3.42314 23.3927 5.12526 23.828 7.04652 23.9211C8.70361 24.0141 10.3457 23.9991 11.9998 23.9991C13.6569 23.9991 15.2989 24.0141 16.953 23.9211C18.8743 23.828 20.5794 23.3897 21.9843 21.9847C23.3923 20.5768 23.8275 18.8746 23.9206 16.9533C24.0167 15.2992 23.9987 13.6571 23.9987 12V12ZM11.9968 18.1572C8.58954 18.1572 5.83973 15.4073 5.83973 12C5.83973 8.5927 8.58954 5.84284 11.9968 5.84284C15.404 5.84284 18.1538 8.5927 18.1538 12C18.1538 15.4073 15.404 18.1572 11.9968 18.1572ZM18.406 7.02864C17.6105 7.02864 16.968 6.38621 16.968 5.59067C16.968 4.79513 17.6105 4.1527 18.406 4.1527C19.2015 4.1527 19.8439 4.79513 19.8439 5.59067C19.8442 5.77957 19.8071 5.96667 19.735 6.14124C19.6628 6.31581 19.5569 6.47442 19.4233 6.608C19.2897 6.74157 19.1311 6.84748 18.9565 6.91967C18.782 6.99185 18.5949 7.02888 18.406 7.02864V7.02864Z" stroke="none"/>
		</symbol>
		<symbol id="icon-youtube" viewBox="15 15 70 70">
			<title>youtube</title>
			<path d="M71.5,27.5h-43a11,11,0,0,0-11,11v23a11,11,0,0,0,11,11h43a11,11,0,0,0,11-11v-23A11,11,0,0,0,71.5,27.5ZM52.75,55,43,60V40l9.75,5,9.75,5Z"/>
		</symbol>
		<symbol id="icon-facebook" viewBox="0 0 24 24">
			<title>facebook</title>
			<path d="M4.38226 0C1.95468 0 0 1.95468 0 4.38226V19.6178C0 22.0453 1.95468 24 4.38226 24H12.6398V14.6175H10.1588V11.2395H12.6398V8.35351C12.6398 6.08611 14.1057 4.00426 17.4825 4.00426C18.8497 4.00426 19.8608 4.13551 19.8608 4.13551L19.7813 7.29002C19.7813 7.29002 18.7501 7.28028 17.625 7.28028C16.4073 7.28028 16.212 7.84135 16.212 8.77279V11.2395H19.878L19.7183 14.6175H16.212V24.0001H19.6177C22.0453 24.0001 24 22.0454 24 19.6178V4.38228C24 1.9547 22.0453 2.4e-05 19.6177 2.4e-05H4.38223L4.38226 0Z" stroke="none"/>
		</symbol>
		<symbol id="icon-linkedin" viewBox="0 0 24 24">
			<title>linkedin</title>
			<path d="M4.7031 0C2.11677 0 0 2.11672 0 4.7031V19.2977C0 21.884 2.11672 24 4.7031 24H19.2977C21.884 24 24 21.884 24 19.2977V4.7031C24 2.11677 21.884 0 19.2977 0H4.7031ZM5.886 3.96048C7.1261 3.96048 7.88994 4.77458 7.91352 5.84471C7.91352 6.8912 7.12605 7.72819 5.86202 7.72819H5.83875C4.62226 7.72819 3.83599 6.89125 3.83599 5.84471C3.83599 4.77461 4.64605 3.96048 5.88598 3.96048H5.886ZM16.5726 8.96211C18.9575 8.96211 20.7454 10.5209 20.7454 13.8707V20.1242H17.1209V14.29C17.1209 12.8239 16.5964 11.8237 15.2847 11.8237C14.2834 11.8237 13.6865 12.4978 13.4245 13.1491C13.3287 13.3821 13.3052 13.7075 13.3052 14.0335V20.1242H9.68074C9.68074 20.1242 9.72831 10.2412 9.68074 9.21787H13.3059V10.7623C13.7876 10.0192 14.6491 8.96208 16.5726 8.96208V8.96211ZM4.04978 9.21866H7.67423V20.1243H4.04978V9.21866Z" stroke="none"/>
		</symbol>
		<symbol id="icon-stars" viewBox="0 0 77 79">
			<title>stars</title>
			<path fill-rule="evenodd" clip-rule="evenodd" d="M64.0918 26.6667C63.1064 18.3171 60.914 15.8019 52.7109 14.6869C60.914 13.5978 63.1064 11.0825 64.0918 2.70703C65.0771 11.0566 67.2695 13.5718 75.4726 14.6869C67.2449 15.8019 65.0525 18.3171 64.0918 26.6667Z" stroke="none"/>
			<path fill-rule="evenodd" clip-rule="evenodd" d="M38.3354 79.3793C35.0418 51.7723 27.6372 43.4724 0 39.8459C27.6372 36.2195 35.0418 27.9195 38.3354 0.3125C41.6291 27.9195 49.0337 36.2195 76.6709 39.8459C49.0337 43.4724 41.6291 51.7723 38.3354 79.3793Z" stroke="none"/>
			<path fill-rule="evenodd" clip-rule="evenodd" d="M65.2892 81.7757C64.0035 71.3388 61.1044 68.1875 50.3145 66.801C61.1044 65.4144 63.9783 62.2883 65.2892 51.8262C66.5749 62.2631 69.4741 65.4144 80.264 66.801C69.4741 68.1875 66.5749 71.3388 65.2892 81.7757Z" stroke="none"/>
		</symbol>
		<symbol id="icon-dash-line" viewBox="0 0 224 4">
			<title>dash-line</title>
			<path d="M2 2L222 1.99998" fill="none" stroke-width="3" stroke-linecap="round"/>
		</symbol>
		<symbol id="icon-pin" viewBox="0 0 14 18">
			<title>pin</title>
			<path fill-rule="evenodd" clip-rule="evenodd" d="M6.69 16.933L6.693 16.934C6.89 17.02 7 17 7 17C7 17 7.11 17.02 7.308 16.934L7.31 16.933L7.316 16.93L7.334 16.922C7.42893 16.8779 7.52263 16.8312 7.615 16.782C7.801 16.686 8.061 16.542 8.372 16.349C8.992 15.965 9.817 15.383 10.646 14.584C12.302 12.988 14 10.493 14 7C14 6.08075 13.8189 5.1705 13.4672 4.32122C13.1154 3.47194 12.5998 2.70026 11.9497 2.05025C11.2997 1.40024 10.5281 0.884626 9.67878 0.532843C8.8295 0.18106 7.91925 0 7 0C6.08075 0 5.1705 0.18106 4.32122 0.532843C3.47194 0.884626 2.70026 1.40024 2.05025 2.05025C1.40024 2.70026 0.884626 3.47194 0.532843 4.32122C0.18106 5.1705 -1.36979e-08 6.08075 0 7C0 10.492 1.698 12.988 3.355 14.584C4.04875 15.2503 4.8106 15.8419 5.628 16.349C5.94459 16.5456 6.27029 16.7271 6.604 16.893L6.666 16.922L6.684 16.93L6.69 16.933ZM7 9.25C7.59674 9.25 8.16903 9.01295 8.59099 8.59099C9.01295 8.16903 9.25 7.59674 9.25 7C9.25 6.40326 9.01295 5.83097 8.59099 5.40901C8.16903 4.98705 7.59674 4.75 7 4.75C6.40326 4.75 5.83097 4.98705 5.40901 5.40901C4.98705 5.83097 4.75 6.40326 4.75 7C4.75 7.59674 4.98705 8.16903 5.40901 8.59099C5.83097 9.01295 6.40326 9.25 7 9.25Z" stroke="none"/>
		</symbol>
		<symbol id="icon-graph" viewBox="0 0 48 47">
			<title>graph</title>
			<path fill-rule="evenodd" clip-rule="evenodd" d="M45.4143 7.33558C46.2413 7.2875 46.9507 7.91896 46.9988 8.74599L47.5013 20.0439C47.5494 20.8709 46.918 21.5803 46.0909 21.6284C45.2639 21.6765 44.5545 21.0451 44.5064 20.218L44.2141 12.5353L34.2923 23.682C33.1642 24.9495 31.3518 25.3534 29.7922 24.685L22.6334 21.6169C22.2407 21.4486 21.7839 21.5649 21.5195 21.9005L9.67955 36.9281C9.16686 37.5788 8.22373 37.6907 7.57301 37.178C6.92228 36.6653 6.81038 35.7222 7.32308 35.0715L19.163 20.0439C20.2673 18.6423 22.175 18.1566 23.8151 18.8595L30.974 21.9276C31.3474 22.0876 31.7813 21.9909 32.0515 21.6874L41.9732 10.5407L34.4665 10.9947C33.6394 11.0428 32.93 10.4113 32.8819 9.58429C32.8338 8.75726 33.4653 8.04784 34.2923 7.99976L45.4143 7.33558Z" stroke="none"/>
			<path fill-rule="evenodd" clip-rule="evenodd" d="M1.5 0C2.32843 0 3 0.671573 3 1.5V37.6778C3 39.0715 3.00117 40.0267 3.06163 40.7666C3.12065 41.4891 3.22864 41.8734 3.36937 42.1496C3.69427 42.7873 4.21271 43.3057 4.85037 43.6306C5.12656 43.7714 5.51089 43.8793 6.23336 43.9384C6.97334 43.9988 7.92846 44 9.32223 44H45.5C46.3284 44 47 44.6716 47 45.5C47 46.3284 46.3284 47 45.5 47H9.25954C7.94376 47 6.86566 47 5.98906 46.9284C5.08107 46.8542 4.25799 46.6958 3.48839 46.3037C2.28625 45.6911 1.30887 44.7138 0.696348 43.5116C0.304219 42.742 0.145776 41.9189 0.0715898 41.0109C-3.19779e-05 40.1343 -1.73188e-05 39.0562 5.62631e-07 37.7404L1.03947e-06 1.5C1.03947e-06 0.671573 0.671574 0 1.5 0Z" stroke="none"/>
		</symbol>
		<symbol id="icon-medal-2" viewBox="0 0 34 48">
			<title>medal-2</title>
			<path d="M33.1976 17.1011C33.198 14.4604 32.5488 11.8603 31.3073 9.52974C30.0657 7.19919 28.27 5.20981 26.0783 3.73694C23.8866 2.26407 21.3663 1.35293 18.7395 1.08382C16.1126 0.814714 13.4599 1.1959 11.0151 2.19379C8.57027 3.19167 6.40847 4.77562 4.72019 6.80602C3.03191 8.83642 1.869 11.2509 1.33395 13.8368C0.798894 16.4226 0.908126 19.1004 1.65202 21.634C2.39591 24.1677 3.75162 26.4795 5.59966 28.3656V45.2739L5.61806 45.5154C5.65937 45.8081 5.77518 46.0852 5.9544 46.3202C6.13361 46.5552 6.37021 46.7403 6.6415 46.8576C6.91278 46.9749 7.20966 47.0205 7.50364 46.99C7.79762 46.9596 8.07885 46.8541 8.32035 46.6837L17.0965 40.5041L25.8795 46.686L26.0842 46.8102C26.3473 46.945 26.6405 47.0099 26.9359 46.9988C27.2312 46.9876 27.5187 46.9008 27.7709 46.7465C28.023 46.5923 28.2312 46.3759 28.3757 46.118C28.5201 45.8601 28.5958 45.5695 28.5956 45.2739L28.6002 28.3656C31.552 25.3599 33.2033 21.3138 33.1976 17.1011ZM25.1482 31.0472V41.9507L18.0877 36.9831L17.8577 36.8451C17.5798 36.7084 17.2702 36.6491 16.9614 36.6734C16.6527 36.6977 16.3561 36.8046 16.103 36.9831L9.0517 41.9507V31.0472C11.4975 32.4615 14.2736 33.2041 17.0988 33.1998C20.0311 33.1998 22.7794 32.4179 25.1482 31.0472ZM4.44974 17.1011C4.44974 13.7463 5.78241 10.529 8.15456 8.15682C10.5267 5.78466 13.7441 4.452 17.0988 4.452C20.4535 4.452 23.6709 5.78466 26.043 8.15682C28.4152 10.529 29.7478 13.7463 29.7478 17.1011C29.7478 20.4558 28.4152 23.6731 26.043 26.0453C23.6709 28.4174 20.4535 29.7501 17.0988 29.7501C13.7441 29.7501 10.5267 28.4174 8.15456 26.0453C5.78241 23.6731 4.44974 20.4558 4.44974 17.1011Z" stroke="none" stroke-width="0.4"/>
			<path fill-rule="evenodd" clip-rule="evenodd" d="M17.0969 23.9986C16.4634 18.8984 15.0537 17.362 9.7793 16.6809C15.0537 16.0157 16.4634 14.4793 17.0969 9.36328C17.7305 14.4635 19.1402 15.9998 24.4146 16.6809C19.1243 17.362 17.7147 18.8984 17.0969 23.9986Z" stroke="none"/>
		</symbol>
		<symbol id="icon-boxes" viewBox="0 0 51 46">
			<title>boxes</title>
			<path fill-rule="evenodd" clip-rule="evenodd" d="M6.44922 3.3C6.44922 1.47746 7.92668 0 9.74922 0H35.1742C36.9968 0 38.4742 1.47746 38.4742 3.3V23.425H9.74922C7.92667 23.425 6.44922 21.9475 6.44922 20.125V3.3ZM9.74922 3C9.58353 3 9.44922 3.13431 9.44922 3.3V20.125C9.44922 20.2907 9.58353 20.425 9.74922 20.425H35.4742V3.3C35.4742 3.13431 35.3399 3 35.1742 3H9.74922Z" stroke="none"/>
			<path fill-rule="evenodd" clip-rule="evenodd" d="M0 23.7248C0 21.9023 1.47746 20.4248 3.3 20.4248H26.65V45.9998H3.3C1.47746 45.9998 0 44.5223 0 42.6998V23.7248ZM3.3 23.4248C3.13431 23.4248 3 23.5591 3 23.7248V42.6998C3 42.8655 3.13431 42.9998 3.3 42.9998H23.65V23.4248H3.3Z" stroke="none"/>
			<path fill-rule="evenodd" clip-rule="evenodd" d="M23.6504 20.4248H47.0004C48.8229 20.4248 50.3004 21.9023 50.3004 23.7248V42.6998C50.3004 44.5223 48.8229 45.9998 47.0004 45.9998H23.6504V20.4248ZM26.6504 23.4248V42.9998H47.0004C47.1661 42.9998 47.3004 42.8655 47.3004 42.6998V23.7248C47.3004 23.5591 47.1661 23.4248 47.0004 23.4248H26.6504Z" stroke="none"/>
			<path fill-rule="evenodd" clip-rule="evenodd" d="M36.9746 20.4248C37.803 20.4248 38.4746 21.0964 38.4746 21.9248V30.5248C38.4746 31.3532 37.803 32.0248 36.9746 32.0248C36.1462 32.0248 35.4746 31.3532 35.4746 30.5248V21.9248C35.4746 21.0964 36.1462 20.4248 36.9746 20.4248Z" stroke="none"/>
			<path fill-rule="evenodd" clip-rule="evenodd" d="M13.3242 20.4248C14.1526 20.4248 14.8242 21.0964 14.8242 21.9248V30.5248C14.8242 31.3532 14.1526 32.0248 13.3242 32.0248C12.4958 32.0248 11.8242 31.3532 11.8242 30.5248V21.9248C11.8242 21.0964 12.4958 20.4248 13.3242 20.4248Z" stroke="none"/>
			<path fill-rule="evenodd" clip-rule="evenodd" d="M23 0C23.8284 0 24.5 0.671573 24.5 1.5V10.1C24.5 10.9284 23.8284 11.6 23 11.6C22.1716 11.6 21.5 10.9284 21.5 10.1V1.5C21.5 0.671573 22.1716 0 23 0Z" stroke="none"/>
		</symbol>
		<symbol id="icon-info-2" viewBox="0 0 47 47">
			<title>info-2</title>
			<path fill-rule="evenodd" clip-rule="evenodd" d="M19.9402 3.31144C22.5914 2.84396 25.3087 2.90325 27.937 3.48593C30.5653 4.06861 33.0531 5.16326 35.2583 6.70738C37.4636 8.25151 39.3431 10.2149 40.7895 12.4854C42.236 14.7558 43.2211 17.289 43.6886 19.9402C44.156 22.5914 44.0967 25.3087 43.5141 27.937C42.9314 30.5653 41.8367 33.0531 40.2926 35.2583C38.7485 37.4636 36.7851 39.3431 34.5146 40.7895C32.2441 42.236 29.711 43.2211 27.0598 43.6886C24.4086 44.156 21.6913 44.0967 19.063 43.5141C16.4347 42.9314 13.9469 41.8367 11.7417 40.2926C9.53645 38.7485 7.65694 36.7851 6.21048 34.5146C4.76402 32.2442 3.77892 29.711 3.31144 27.0598C2.84396 24.4086 2.90326 21.6913 3.48593 19.063C4.06861 16.4347 5.16326 13.9469 6.70738 11.7417C8.2515 9.53645 10.2149 7.65694 12.4854 6.21048C14.7558 4.76401 17.289 3.77892 19.9402 3.31144ZM28.5863 0.557043C25.5734 -0.110903 22.4584 -0.178871 19.4193 0.357019C16.3801 0.892908 13.4762 2.02216 10.8735 3.6803C8.27069 5.33844 6.02002 7.493 4.24992 10.021C2.47983 12.5489 1.22499 15.4008 0.557041 18.4137C-0.110905 21.4266 -0.178871 24.5416 0.357018 27.5807C0.89291 30.6199 2.02216 33.5238 3.68031 36.1265C5.33845 38.7293 7.493 40.98 10.021 42.7501C12.5489 44.5202 15.4008 45.775 18.4137 46.443C21.4266 47.1109 24.5416 47.1789 27.5807 46.643C30.6199 46.1071 33.5238 44.9778 36.1265 43.3197C38.7293 41.6616 40.98 39.507 42.7501 36.979C44.5202 34.4511 45.775 31.5992 46.443 28.5863C47.1109 25.5734 47.1789 22.4584 46.643 19.4193C46.1071 16.3801 44.9778 13.4762 43.3197 10.8735C41.6616 8.2707 39.507 6.02002 36.979 4.24993C34.4511 2.47983 31.5992 1.22499 28.5863 0.557043Z" stroke="none"/>
			<path fill-rule="evenodd" clip-rule="evenodd" d="M25 22.002L25 38.202L22 38.202L22 22.002L25 22.002Z" stroke="none"/>
			<path fill-rule="evenodd" clip-rule="evenodd" d="M22 13.5608L22 8.80079L25 8.80079L25 13.5608L22 13.5608Z" stroke="none"/>
		</symbol>
		<symbol id="icon-gist" viewBox="0 0 34 36">
			<title>gits</title>
			<path d="M32 34.0001H2" fill="none" stroke-width="3" stroke-linecap="round"/>
			<path d="M7 16L7 27" fill="none" stroke-width="3" stroke-linecap="round"/>
			<path d="M17 9L17 27" fill="none" stroke-width="3" stroke-linecap="round"/>
			<path d="M27 2L27 27" fill="none" stroke-width="3" stroke-linecap="round"/>
		</symbol>
		<symbol id="icon-person-rate" viewBox="0 0 43 46">
			<title>person-rate</title>
			<path d="M21.4968 1C13.4978 1 7 7.5037 7 15.5027C7 20.1372 9.18963 24.2569 12.5802 26.9115C12.6782 27.0664 12.8297 27.1801 13.006 27.231C15.395 28.965 18.323 30 21.497 30C24.7484 30 27.7426 28.9126 30.1639 27.1009H30.1653C30.2121 27.0735 30.2556 27.041 30.2954 27.0039C33.7562 24.353 36 20.1918 36 15.5026C36 7.50368 29.4959 1 21.4968 1ZM21.4968 2.49857C28.6859 2.49857 34.501 8.31353 34.501 15.5027C34.501 19.2291 32.9312 22.5755 30.4254 24.9437C29.937 21.6753 27.7052 18.9875 24.7004 17.8489C26.486 16.7607 27.6872 14.8012 27.6872 12.5658C27.6872 9.15821 24.9045 6.38115 21.4969 6.38115C18.0893 6.38115 15.3139 9.15787 15.3139 12.5658C15.3139 14.8012 16.5128 16.7607 18.2964 17.8489C15.2918 18.9879 13.0627 21.6769 12.5756 24.9467C10.0692 22.5784 8.50003 19.2311 8.50003 15.5031C8.50003 8.31404 14.3079 2.49857 21.4968 2.49857ZM21.4968 7.87972C24.0946 7.87972 26.1885 9.96804 26.1885 12.5658C26.1885 15.1635 24.0946 17.2561 21.4968 17.2561C18.899 17.2561 16.8124 15.1634 16.8124 12.5658C16.8124 9.96804 18.899 7.87972 21.4968 7.87972ZM21.4968 18.755C25.6192 18.755 28.9228 21.9973 29.0262 26.0927C26.9011 27.6037 24.307 28.5001 21.4968 28.5001C18.6856 28.5001 16.0932 27.6029 13.9688 26.0913C14.0732 21.9964 17.375 18.755 21.4968 18.755Z"/>
			<path fill-rule="evenodd" clip-rule="evenodd" d="M6.5 46C5.93723 41.4697 4.68506 40.105 0 39.5C4.68506 38.9091 5.93723 37.5444 6.5 33C7.06277 37.5303 8.31494 38.895 13 39.5C8.30087 40.105 7.0487 41.4697 6.5 46Z" stroke="none"/>
			<path fill-rule="evenodd" clip-rule="evenodd" d="M21.5 46C20.9372 41.4697 19.6851 40.105 15 39.5C19.6851 38.9091 20.9372 37.5444 21.5 33C22.0628 37.5303 23.3149 38.895 28 39.5C23.3009 40.105 22.0487 41.4697 21.5 46Z" stroke="none"/>
			<path fill-rule="evenodd" clip-rule="evenodd" d="M36.5 46C35.9372 41.4697 34.6851 40.105 30 39.5C34.6851 38.9091 35.9372 37.5444 36.5 33C37.0628 37.5303 38.3149 38.895 43 39.5C38.3009 40.105 37.0487 41.4697 36.5 46Z" stroke="none"/>
		</symbol>
		<symbol id="icon-activity" viewBox="0 0 23 34">
			<title>activity</title>
			<path d="M5.6093 33.9029C5.36174 33.798 5.15602 33.6133 5.02459 33.3781C4.89317 33.1428 4.84352 32.8703 4.88348 32.6036L7.08515 18.2145H1.24225C1.05701 18.2195 0.873103 18.1817 0.704717 18.1041C0.536331 18.0264 0.387967 17.911 0.271071 17.7667C0.154175 17.6223 0.0718733 17.453 0.0305151 17.2717C-0.0108431 17.0904 -0.0101518 16.9019 0.0325352 16.7209L3.66167 0.935422C3.72553 0.663753 3.88068 0.422463 4.10101 0.252169C4.32134 0.0818742 4.5934 -0.00702572 4.87138 0.000433994H16.9685C17.1492 -0.000182821 17.3278 0.0398537 17.4911 0.117602C17.6544 0.19535 17.7982 0.308833 17.9121 0.449714C18.0275 0.592186 18.1093 0.759093 18.1512 0.937871C18.1931 1.11665 18.1941 1.30264 18.154 1.48184L16.0612 10.9289H21.8073C22.0341 10.9284 22.2564 10.9919 22.4489 11.1122C22.6414 11.2324 22.7963 11.4045 22.8961 11.6089C22.9828 11.805 23.0161 12.0207 22.9927 12.234C22.9694 12.4473 22.8901 12.6506 22.763 12.8231L7.03676 33.4657C6.93048 33.6239 6.78857 33.7547 6.62253 33.8475C6.45649 33.9403 6.271 33.9926 6.08109 34C5.91922 33.997 5.75929 33.964 5.6093 33.9029V33.9029ZM13.0369 13.3574L15.4564 2.42897H5.83915L2.76648 15.7859H9.91588L7.99244 28.2686L19.3879 13.3574H13.0369Z" stroke="none"/>
		</symbol>
		<symbol id="icon-heart-2" viewBox="0 0 39 37">
			<title>heart-2</title>
			<path d="M30.7721 4.38863L30.7709 4.38744C29.9247 3.51444 28.9311 2.82476 27.8459 2.35221L27.8439 2.35134C26.7182 1.85918 25.5138 1.60841 24.2998 1.61135L24.2962 1.61136C22.5893 1.61136 20.9214 2.10279 19.4671 3.03653L19.467 3.03656C19.1188 3.2601 18.7886 3.50525 18.4759 3.77221L17.502 4.6036L16.5281 3.77221C16.2154 3.50525 15.8852 3.2601 15.537 3.03656L15.5369 3.03653C14.0826 2.10279 12.4147 1.61136 10.7078 1.61136C9.47532 1.61136 8.2863 1.85897 7.16006 2.35134L7.15839 2.35207C6.06892 2.82679 5.08375 3.51058 4.23266 4.3879L4.23067 4.38995C3.38704 5.25627 2.70925 6.29246 2.23921 7.44173L30.7721 4.38863ZM30.7721 4.38863C31.6153 5.25666 32.2935 6.29339 32.7652 7.44269M30.7721 4.38863L28.4448 0.976945C29.7127 1.52909 30.8681 2.33249 31.848 3.34345C32.8271 4.35141 33.6102 5.55064 34.1532 6.87402M34.1532 6.87402L32.7648 7.44173C32.7649 7.44204 32.7651 7.44238 32.7652 7.44269M34.1532 6.87402C34.7164 8.25129 35.004 9.71383 35 11.219C35 12.6389 34.7245 14.1185 34.1775 15.6237L34.1532 6.87402ZM32.7652 7.44269C33.254 8.63856 33.5035 9.90654 33.5 11.215V11.219C33.5 12.4441 33.2623 13.7504 32.7677 15.1114L32.7665 15.1147C32.357 16.25 31.7504 17.4556 30.9595 18.6982L32.7652 7.44269ZM30.9593 18.6985C29.7081 20.6617 27.9626 22.7469 25.7551 24.8919C22.0837 28.4565 18.4478 30.9193 18.3201 31.0055L18.3198 31.0057L17.5 31.5591L16.6801 31.0057L16.6683 30.9977L16.6564 30.9899L16.6554 30.9893C16.6472 30.9838 16.5881 30.9443 16.4747 30.8659C16.3573 30.7847 16.191 30.6682 15.9828 30.519C15.5663 30.2205 14.9837 29.7924 14.2898 29.2548C12.8998 28.1778 11.0744 26.67 9.24548 24.8925L9.24532 24.8923C7.03758 22.7471 5.29197 20.6618 4.04061 18.6985H30.9593ZM1.5 11.219C1.5 9.90754 1.75012 8.63793 2.23917 7.44184L4.04015 18.6977C3.251 17.4578 2.64695 16.2509 2.23198 15.1107C1.73761 13.7499 1.5 12.4439 1.5 11.219Z" fill="none" stroke-width="3"/>
		</symbol>
		<symbol id="icon-hands-2" viewBox="0 0 39 36">
			<title>hands-2</title>
			<path fill-rule="evenodd" clip-rule="evenodd" d="M19.3574 14C18.7514 9.12121 17.4029 7.65151 12.3574 7C17.4029 6.36364 18.7514 4.89394 19.3574 0C19.9635 4.87879 21.312 6.34848 26.3574 7C21.2968 7.65151 19.9483 9.12121 19.3574 14Z" stroke="none"/>
			<path d="M30.6628 35.0877C31.3288 35.0877 31.9582 34.8301 32.4372 34.3612C32.9231 33.8854 33.1944 33.2513 33.2021 32.5749L33.2522 27.9129C33.2594 27.2365 33.0018 26.5961 32.526 26.1108C32.2571 25.836 31.9363 25.6327 31.5869 25.5039L31.6027 25.3957C31.7211 24.6033 32.0821 23.8857 32.6474 23.3207L36.2763 19.6918C37.2032 18.7649 37.789 17.5403 37.9243 16.244L38.3095 12.5912C38.3354 12.4589 38.3507 12.3211 38.353 12.1789L38.3542 12.1688C38.3545 12.1631 38.3539 12.1578 38.3542 12.1521C38.3542 12.1282 38.3575 12.1056 38.3572 12.0811L38.1691 6.19094C38.1536 5.75449 37.975 5.34396 37.6662 5.03488C37.3362 4.70486 36.878 4.51824 36.3995 4.53196C34.722 4.58711 33.399 5.99779 33.4502 7.6774L33.5411 10.4824L33.0671 12.3996C32.4935 12.3963 31.9187 12.6115 31.4814 13.0489L28.3625 16.1701L27.2825 16.3567C26.584 16.4751 25.9234 16.8167 25.4226 17.3179L23.2741 19.4664C22.6412 20.099 22.2813 20.9391 22.2608 21.8322L22.1812 25.3926C21.1795 25.7247 20.4492 26.6631 20.4369 27.7758L20.3869 32.438C20.3797 33.1144 20.6373 33.7542 21.1134 34.2401C21.5892 34.726 22.2233 34.9973 22.8997 35.005L30.6345 35.0876H30.6628L30.6628 35.0877ZM24.1803 20.3729L26.3288 18.2244C26.6433 17.9098 27.0583 17.6952 27.4986 17.6204L28.7808 17.3986C28.8261 17.3908 28.8694 17.378 28.9102 17.3613C28.9132 17.3601 28.9159 17.3583 28.9182 17.3571C28.9952 17.3249 29.064 17.279 29.1216 17.2221C29.1225 17.2212 29.1236 17.2209 29.1248 17.22L32.3874 13.9554C32.7544 13.5884 33.3515 13.5884 33.7188 13.9554C34.0858 14.3223 34.0858 14.9201 33.7188 15.287L29.9703 19.0355C29.7199 19.2856 29.7199 19.6917 29.9703 19.9421C30.0961 20.0673 30.2601 20.1296 30.4243 20.1296C30.5886 20.1296 30.7525 20.0673 30.8778 19.9421L34.6263 16.1936C35.4928 15.327 35.4928 13.916 34.6263 13.0491C34.5228 12.9456 34.4107 12.8568 34.2942 12.7781L34.8066 10.7044C34.8084 10.6972 34.8084 10.6904 34.8096 10.6835C34.8144 10.6618 34.8167 10.64 34.8191 10.6176C34.8212 10.5953 34.8233 10.5735 34.8233 10.5515C34.8233 10.5443 34.8251 10.5374 34.8245 10.53L34.7306 7.6374C34.7011 6.66373 35.4681 5.84545 36.4337 5.81325C36.564 5.81146 36.6734 5.85588 36.7586 5.94114C36.8141 5.99659 36.8818 6.09318 36.8868 6.23359L37.0735 12.0772L37.0302 12.4883C37.0284 12.5038 37.0261 12.519 37.0255 12.534L36.6486 16.1098C36.5434 17.1151 36.0888 18.0652 35.3691 18.7848L31.7401 22.4138C30.9793 23.1746 30.4931 24.1405 30.3336 25.209L30.3142 25.3413L23.4659 25.2677L23.5419 21.8611C23.555 21.3003 23.7819 20.7715 24.1802 20.3729L24.1803 20.3729ZM22.0294 33.3431C21.7936 33.1019 21.6654 32.7853 21.6689 32.4517L21.719 27.7894C21.7262 27.1005 22.289 26.5448 22.9767 26.5448H22.9904L30.726 26.6276C31.0599 26.6309 31.3738 26.7659 31.6099 27.0071C31.8457 27.2483 31.9739 27.5652 31.9704 27.8991L31.9203 32.5611C31.917 32.895 31.7819 33.2089 31.5408 33.445C31.2993 33.6808 30.9738 33.8006 30.6485 33.8054L22.913 33.7228C22.5797 33.7193 22.2655 33.5842 22.0294 33.343V33.3431Z" stroke-width="0.5"/>
			<path d="M30.532 28.4877C30.532 29.0935 30.041 29.5848 29.435 29.5848C28.8292 29.5848 28.3379 29.0935 28.3379 28.4877C28.3379 27.8816 28.8292 27.3906 29.435 27.3906C30.041 27.3906 30.532 27.8816 30.532 28.4877Z" stroke="none"/>
			<path d="M1.00254 12.1626V12.1691L1.00284 12.1733C1.00463 12.3164 1.02043 12.4565 1.04726 12.5931L1.43243 16.2441C1.56777 17.5409 2.15327 18.7653 3.08043 19.6921L6.70942 23.3211C7.27435 23.8867 7.63569 24.6036 7.75345 25.3939L7.76955 25.5045C7.42045 25.6333 7.09939 25.8366 6.83046 26.1115C6.35466 26.5974 6.09709 27.2378 6.10425 27.9136L6.15433 32.5755C6.16149 33.2519 6.43336 33.8864 6.91927 34.3618C7.39863 34.831 8.0274 35.0883 8.69365 35.0883H8.72138L16.4569 35.0057C17.1334 34.9986 17.7678 34.7267 18.2432 34.2408C18.719 33.7549 18.9769 33.1145 18.9698 32.4387L18.9197 27.7765C18.9077 26.6636 18.1774 25.7251 17.1754 25.3933L17.0958 21.8329C17.0753 20.9407 16.7154 20.1003 16.0826 19.4674L13.9341 17.3189C13.4332 16.818 12.7723 16.4764 12.0759 16.358L10.9943 16.1708L7.8748 13.0493C7.43806 12.6128 6.86329 12.3976 6.28968 12.4006L5.81568 10.4828L5.9072 7.67657C5.95818 5.99818 4.63483 4.58745 2.95111 4.53204C2.48455 4.51744 2.02156 4.70525 1.69125 5.03496C1.3824 5.34381 1.20354 5.75462 1.18834 6.19286L1.00023 12.0878C0.999035 12.1137 1.00291 12.1379 1.00291 12.1626L1.00254 12.1626ZM17.6368 27.7902L17.6869 32.4524C17.6901 32.7863 17.5625 33.1029 17.3264 33.3438C17.0906 33.585 16.7764 33.72 16.4425 33.7233L8.70771 33.8065C8.37352 33.8023 8.05722 33.6816 7.81631 33.4461C7.57513 33.2103 7.44009 32.896 7.43681 32.5622L7.38613 27.9002C7.38285 27.5663 7.51044 27.2497 7.74655 27.0082C7.98236 26.767 8.29658 26.6326 8.63047 26.6287L16.366 26.5458H16.3792C17.0672 26.5458 17.6301 27.1012 17.6372 27.7902L17.6368 27.7902ZM2.59682 5.94191C2.68238 5.85695 2.79 5.8179 2.91492 5.81372C3.88705 5.84592 4.65443 6.66429 4.62489 7.63642L4.53098 10.5302C4.53068 10.5374 4.53217 10.5443 4.53217 10.5517C4.53217 10.5735 4.53426 10.5958 4.53635 10.6179C4.53843 10.6402 4.54112 10.6623 4.54589 10.6838C4.54768 10.6909 4.54708 10.6978 4.54887 10.7052L5.06133 12.7789C4.94416 12.8576 4.83237 12.9468 4.72893 13.0502C3.86234 13.9174 3.86234 15.3282 4.72893 16.1947L8.47743 19.9432C8.60323 20.0682 8.76749 20.1305 8.93146 20.1305C9.09571 20.1305 9.25968 20.0682 9.38489 19.943C9.6353 19.6925 9.6353 19.2865 9.38489 19.0364L5.63639 15.2879C5.26941 14.9209 5.26971 14.3231 5.63639 13.9562C6.00337 13.5895 6.60051 13.5895 6.96775 13.9562L10.2309 17.2215C10.2318 17.2224 10.233 17.2227 10.2342 17.2235C10.2915 17.2805 10.3603 17.3264 10.4372 17.3586C10.4402 17.3598 10.4429 17.3616 10.4453 17.3628C10.4864 17.3795 10.5294 17.3917 10.5747 17.4L11.859 17.6221C12.2975 17.6964 12.7125 17.9107 13.027 18.2255L15.1755 20.374C15.5744 20.7729 15.8006 21.3009 15.8135 21.8622L15.8895 25.2694L9.04119 25.3431L9.02151 25.208C8.86262 24.1416 8.37609 23.1764 7.61528 22.4155L3.98629 18.7866C3.26664 18.0663 2.81169 17.1168 2.70675 16.1112L2.32993 12.5359C2.32963 12.5204 2.32665 12.5055 2.32516 12.4903L2.28193 12.0792L2.46855 6.23637C2.47362 6.09387 2.541 5.99788 2.59674 5.94183L2.59682 5.94191Z" stroke-width="0.5"/>
			<path d="M11.0164 28.4877C11.0164 29.0935 10.5251 29.5848 9.91933 29.5848C9.31326 29.5848 8.82227 29.0935 8.82227 28.4877C8.82227 27.8816 9.31326 27.3906 9.91933 27.3906C10.5251 27.3906 11.0164 27.8816 11.0164 28.4877Z" stroke="none"/>
		</symbol>
		<symbol id="icon-star-pin" viewBox="0 0 26 33">
			<title>star-pin</title>
			<path d="M13 0C19.825 0 26 5.313 26 13.53C26 19.008 21.6612 25.4925 13 33C4.33875 25.4925 0 19.008 0 13.53C0 5.313 6.175 0 13 0Z"/>
			<path fill-rule="evenodd" clip-rule="evenodd" d="M12.9992 22C12.3239 16.4242 10.8213 14.7446 5.19922 14C10.8213 13.2727 12.3239 11.5931 12.9992 6C13.6745 11.5758 15.1771 13.2554 20.7992 14C15.1603 14.7446 13.6577 16.4242 12.9992 22Z" fill="white"/>
		</symbol>
		<symbol id="icon-ref" viewBox="0 0 15 15">
			<title>ref</title>
			<path d="M13.998 1V0.3H14.698V1H13.998ZM6.49302 9.49498C6.21965 9.76834 5.77644 9.76834 5.50307 9.49498C5.2297 9.22161 5.2297 8.77839 5.50307 8.50503L6.49302 9.49498ZM13.298 7.4V1H14.698V7.4H13.298ZM13.998 1.7H7.59805V0.3H13.998V1.7ZM14.493 1.49497L6.49302 9.49498L5.50307 8.50503L13.5031 0.505025L14.493 1.49497Z" stroke="none"/>
			<path d="M13 10.25V10.25C13 10.947 13 11.2955 12.9424 11.5853C12.7056 12.7753 11.7753 13.7056 10.5853 13.9424C10.2955 14 9.94698 14 9.25 14H7C4.17157 14 2.75736 14 1.87868 13.1213C1 12.2426 1 10.8284 1 8V5.75C1 5.05302 1 4.70453 1.05764 4.41473C1.29436 3.22466 2.22466 2.29436 3.41473 2.05764C3.70453 2 4.05302 2 4.75 2V2" fill="none" stroke-width="1.4" stroke-linecap="round"/>
		</symbol>
		<symbol id="icon-star-outlined" viewBox="0 0 47 47">
			<title>star-outlined</title>
			<path d="M28.5859 28.8512C26.1502 31.3212 24.5815 34.5194 23.5 38.5992C22.4185 34.5194 20.8498 31.3212 18.4141 28.8512C15.9055 26.3073 12.589 24.6483 8.25554 23.5C12.589 22.3517 15.9055 20.6927 18.4141 18.1488C20.8498 15.6788 22.4185 12.4806 23.5 8.40076C24.5815 12.4806 26.1502 15.6788 28.5859 18.1488C31.0945 20.6927 34.4109 22.3517 38.7445 23.5C34.4109 24.6483 31.0945 26.3073 28.5859 28.8512Z" fill="none" stroke-width="3"/>
		</symbol>
	</defs>
</svg>
